<!-- by TradingView --><svg width="56" height="56" viewBox="0 0 56 56" xmlns="http://www.w3.org/2000/svg"><path fill="#F0F3FA" d="M0 0h56v56H0z"/><path d="M21.02 25h-1.96l.44.92V32H21v-4.72L25.37 32H27v-7h-1.5v4.9L21.02 25ZM18 25h-5.6l.6.63V32h5v-1h-3.5v-2H17v-1h-2.5v-2H18v-1ZM4 32l2.58-5.77c.19-.42.1-.91-.24-1.23h2.34L12 32h-1.89l-.85-2H6.35l-.84 2H4Zm2.76-3h2.07L7.8 26.55 6.76 29ZM35 32l2.58-5.77c.19-.42.1-.91-.24-1.23h2.34L43 32h-1.89l-.85-2h-2.91l-.84 2H35Zm2.76-3h2.07l-1.04-2.45L37.76 29ZM28 25h6.67l-4.02 6h3.88l-.49 1H28l4.02-6H28v-1Z"/><path d="M45 22h7v7h-.24A6.75 6.75 0 0 0 45 22.27V22Zm-3 3h7v7h-.24A6.75 6.75 0 0 0 42 25.27V25Z" fill="#0345F5"/></svg>