<!-- by TradingView --><svg width="56" height="56" viewBox="0 0 56 56" xmlns="http://www.w3.org/2000/svg"><path fill="#F0F3FA" d="M0 0h56v56H0z"/><path d="M28 25.34v1.87c-1.99-.88-3.02.24-3 1.32.02 1.08 1.13 2.12 3 1.17v1.85c-7.9 2.8-8.1-8.63 0-6.21" fill="#FD000D"/><path d="M13.31 24.88s-.38-.27-1.1-.4c-.93-.18-2.94-.15-3.74-1.6-.4-.74-.35-1.34-.34-1.88 0 0 .36.18 1.35.29.66.07 3.85.05 3.83 3.59Z" fill="#5EB423"/><path d="M17 22h-3v10h3V22ZM21 22h-3v2h3v-2ZM21 25h-3v7h3v-7ZM48 28.84c0 1.06-.55 1.16-1.16 1.16-.6 0-.84-.55-.84-.55v-1.89s.23-.56.84-.56 1.16.17 1.16 1.23v.61Zm-1.16-3.63c-.44.22-.67.5-.84.7V25h-3v9h3v-2.95c.18.21.4.5.84.74.73.41 4.05.5 4.16-2.43v-1.72c-.1-2.93-3.3-2.84-4.16-2.43ZM10 29.71s-.02.79-.81.79c-.8 0-1.47-2.06.81-1.64v.85Zm-4.11-1.15c-.32.45-.39.78-.39 1.44 0 1.06 1.06 1.98 2.26 1.98 1.04 0 1.54-.27 2.24-.93V32h3v-4.6s-.04-1.83-2.18-2.29a9.38 9.38 0 0 0-4.07.28l-.02 1.79s.5-.54 1.8-.51c.63.01 1.52.15 1.47 1.06-1.06-.33-3.1-.64-4.11.83ZM40.54 25.45c-.33.3-.45.6-.54.89V25h-3v7h3v-2.72c.03-1.24.7-1.56 1.01-1.7.45-.22 1.36-.19 1.36-.19v-2.38c-1.12-.05-1.53.18-1.83.44ZM32.5 30c-.66 0-1-.25-1-1.5s.36-1.5 1-1.5 1 .25 1 1.5-.34 1.5-1 1.5Zm0-5c-2.2 0-4 .98-4 3.5 0 2.72 2.25 3.5 4 3.5 1.97 0 4-.82 4-3.5 0-2.59-1.8-3.5-4-3.5Z" fill="#FD000D"/></svg>