<!-- by TradingView --><svg width="56" height="56" viewBox="0 0 56 56" fill="none" xmlns="http://www.w3.org/2000/svg">
<rect width="56" height="56" fill="#F0F3FA"/>
<path d="M42.0183 17.8331L36.8276 18.0926L36.6719 17.6255L42.2779 17.1325L44.3541 24.268L44.6656 30.8066L42.0183 17.8331Z" fill="black"/>
<path d="M14.8688 34.2388L4.99998 35.508L8.3774 34.0951L15.276 32.3469L16.7132 36.0587L21.3841 39.1958L22.941 39.8903C21.5422 40.5417 19.9788 40.5928 19.372 40.5369C16.1527 40.0963 15.0284 36.1545 14.8688 34.2388Z" fill="black"/>
<path d="M17.7084 28.0514L5.03395 35.4845L15.1033 33.9628C15.4253 36.6258 16.6254 40.2545 19.7867 40.313C22.3158 40.3599 23.7481 39.0449 24.1481 38.3816L19.3184 28.0514H17.7084Z" fill="#129438"/>
<path fill-rule="evenodd" clip-rule="evenodd" d="M28.4095 42.2891C35.6315 42.2891 41.4862 36.4359 41.4862 29.2157C41.4862 21.9955 35.6315 16.1424 28.4095 16.1424C26.4966 16.1424 24.6797 16.553 23.042 17.2909H24.781V18.0391H22.3303V18.4692H20.9608C20.5137 18.7795 20.087 19.117 19.6829 19.4792H22.6296V20.2647H20.1228L19.7673 20.8632H18.3493C18.0417 21.2331 17.7542 21.6202 17.4883 22.0228H20.9999V22.9019H18.4952V23.3321H16.7289C16.5778 23.6311 16.438 23.9368 16.3098 24.2485H19.9999V24.9218H17.6907V25.2959H15.9308C15.8098 25.6813 15.7062 26.0743 15.6209 26.4742H18.9999V27.1475H15.4956C15.4024 27.7339 15.3481 28.3333 15.3356 28.943H16.6618V29.1861H18.4952V29.5789H17.0172V30.2335H15.3719C15.3967 30.5549 15.433 30.8729 15.4806 31.1874H19.2996V31.7111H17.6907V32.4031H15.7243C15.8181 32.7776 15.9281 33.1457 16.0535 33.5066H20.2163V33.918H18.9068V34.5165H16.4524C16.5998 34.8482 16.7605 35.1726 16.934 35.4891H21.4323V35.9941H19.8047V36.7422H17.716C17.9962 37.1394 18.298 37.5203 18.6197 37.8831H22.8541V38.3133H21.8439V38.8183H19.5357C19.7969 39.0597 20.068 39.2906 20.3484 39.5103H25.4732V40.1836H21.2903C23.3388 41.5154 25.7838 42.2891 28.4095 42.2891Z" fill="black"/>
<path fill-rule="evenodd" clip-rule="evenodd" d="M28.7707 42C35.9359 42 41.7443 36.1797 41.7443 29C41.7443 21.8203 35.9359 16 28.7707 16C26.9991 16 25.3105 16.3558 23.7721 17H24.9999V18H22.7394V18.3138H21.3807C20.9371 18.6223 20.5137 18.9579 20.1128 19.3181H22.9999V20H20.5493L20.1967 20.6944H18.7897C18.4846 21.0622 18.1993 21.4471 17.9356 21.8475H21.366V23H18.9345H17.2586C17.0893 23.3255 16.9333 23.6591 16.7914 24H20.5493V25H18.1364H16.4228C16.2888 25.4158 16.175 25.8409 16.0828 26.2738H19.4728V27H15.9497C15.8626 27.5651 15.8118 28.1422 15.7999 28.7288H17.1156V28.9706H18.9999V29.3611H17.4683V30.0121H15.8358C15.8614 30.3451 15.8995 30.6745 15.9497 31H19.7327V31.4813H18.1364V32.1695H16.1854C16.2785 32.5419 16.3877 32.9079 16.512 33.2668H20.6421V33.6759H19.3429V34.2711H16.9079C17.0174 34.5182 17.1344 34.7613 17.2585 35H21.9999V35.7403H20.2338V36.4843H18.1615C18.3858 36.8029 18.624 37.111 18.8753 37.4077H23.2592V38H22.2569V38.315H19.7327L19.8048 38.3961C20.0241 38.6062 20.2507 38.8087 20.4842 39.0031H25.9999V40H21.8534C23.8556 41.2669 26.2277 42 28.7707 42Z" fill="url(#paint0_linear_4885_128398)"/>
<path fill-rule="evenodd" clip-rule="evenodd" d="M22 29V28H24V25H25.546V24.1827C25.3348 24.2168 25.1646 24.3366 25.034 24.4828C24.8919 24.6418 24.8022 24.8263 24.764 24.9447L24.6013 24.8923C24.6459 24.7541 24.7466 24.5479 24.9066 24.3689C25.0597 24.1975 25.2721 24.0458 25.546 24.01V24H26.1977V24.4739H27.0124V25H27.1986V23.6361H27.4198V25H27.7102V23.6361H28.0012V25H28.6069V24.6251H28.3159V24.2644H29.3168V24.6251H29.0026V25H30.2479V26.4402L31.6212 27.4292V28H32V26.5915L33.294 27.5689V28H33.817V26.5915L35 27.5689V28H35.4807V23H36.0044V28H36.4543V23H37V28H39V29H22ZM25.1888 25.4837H26V26.0013L25.1888 26.0013V25.4837ZM25 25.4837H24.1481V26.0013L25 26.0013V25.4837ZM24.1481 26.1739V27.326L25 27.326V26.1739L24.1481 26.1739ZM24.1481 27.4939V28.0004H25V27.4939L24.1481 27.4939ZM25.1888 28.0004H26V27.4939L25.1888 27.4939V28.0004ZM26 27.326V26.1739L25.1888 26.1739V27.326L26 27.326ZM28 25.4837H27.1947V25.9876L28 25.9876V25.4837ZM26.1857 25.4837H27V25.9876L26.1857 25.9876V25.4837ZM26.1857 27.3123V26.1602L27 26.1602V27.3123L26.1857 27.3123ZM26.1857 28.0004V27.4802L27 27.4802V28H27.1947V27.4802L28 27.4802V28.0004H26.1857ZM28 26.1602V27.3123L27.1947 27.3123V26.1602L28 26.1602ZM29.2003 25.4837H30V25.9876L29.2003 25.9876V25.4837ZM29 25.4837H28.2231V25.9876L29 25.9876V25.4837ZM28.2231 26.1602V27.3123L29 27.3123V26.1602L28.2231 26.1602ZM28.2231 27.4802V28.0004H30V27.4802L29.2003 27.4802V28H29V27.4802L28.2231 27.4802ZM30 27.3123V26.1602L29.2003 26.1602V27.3123L30 27.3123Z" fill="#373737"/>
<rect x="21" y="32.5" width="18" height="0.5" fill="#FA842C"/>
<path d="M21.2783 32H21L21.8049 30.5199H22.0789L22.8838 32H22.6055L21.9504 30.75H21.9333L21.2783 32ZM21.381 31.4063H22.5027V31.5625H21.381V31.4063Z" fill="#373737"/>
<path d="M24.9996 30.5199V32H24.7427L23.5482 30.8324H23.5268V32H23.2613V30.5199H23.5182L24.717 31.6648H24.7384V30.5199H24.9996Z" fill="#373737"/>
<path d="M26.171 32H25.4946V30.5199H26.201C26.4136 30.5199 26.5956 30.549 26.7469 30.6072C26.8981 30.665 27.0141 30.7481 27.0947 30.8565C27.1753 30.9645 27.2157 31.0938 27.2157 31.2443C27.2157 31.3958 27.175 31.5263 27.0936 31.6357C27.0123 31.7446 26.8938 31.8284 26.7383 31.8871C26.5827 31.9453 26.3936 32 26.171 32ZM25.76 31.8182H26.1539C26.3351 31.8182 26.4853 31.795 26.6045 31.7486C26.7237 31.7022 26.8125 31.6361 26.871 31.5504C26.9295 31.4647 26.9588 31.3627 26.9588 31.2443C26.9588 31.1269 26.9299 31.0258 26.8721 30.9411C26.8143 30.8558 26.7279 30.7905 26.6131 30.745C26.4982 30.6991 26.3551 30.6761 26.1839 30.6761H25.76V31.8182Z" fill="#373737"/>
<path d="M27.6478 32H27.3695L28.1744 30.5199H28.4484L29.2533 32H28.975L28.32 30.75H28.3028L27.6478 32ZM27.7505 31.4063H28.8723V31.5625H27.7505V31.4063Z" fill="#373737"/>
<path d="M29.5947 32V30.5199H29.8602V31.1676H31.0039V30.5199H31.2694V32H31.0039V31.3239H29.8602V32H29.5947Z" fill="#373737"/>
<path d="M33.2643 30.5199H33.5298V31.483C33.5298 31.5824 33.4945 31.6712 33.4238 31.7493C33.3539 31.8269 33.2551 31.8883 33.1273 31.9332C32.9996 31.9777 32.8498 32 32.6778 32C32.5058 32 32.356 31.9777 32.2283 31.9332C32.1005 31.8883 32.0013 31.8269 31.9307 31.7493C31.8608 31.6712 31.8258 31.5824 31.8258 31.483V30.5199H32.0913V31.4688C32.0913 31.5398 32.1148 31.603 32.1619 31.6584C32.209 31.7133 32.2761 31.7566 32.3631 31.7884C32.4509 31.8196 32.5558 31.8352 32.6778 31.8352C32.7998 31.8352 32.9047 31.8196 32.9925 31.7884C33.0802 31.7566 33.1473 31.7133 33.1937 31.6584C33.2408 31.603 33.2643 31.5398 33.2643 31.4688V30.5199Z" fill="#373737"/>
<path d="M34.1498 32H33.8715L34.6764 30.5199H34.9504L35.7553 32H35.477L34.8219 30.75H34.8048L34.1498 32ZM34.2525 31.4063H35.3742V31.5625H34.2525V31.4063Z" fill="#373737"/>
<path d="M37.2955 30.8835C37.2826 30.8116 37.2305 30.7557 37.1392 30.7159C37.0478 30.6761 36.9358 30.6562 36.8031 30.6562C36.7061 30.6562 36.6211 30.6667 36.5484 30.6875C36.4763 30.7083 36.4199 30.737 36.3793 30.7734C36.3393 30.8099 36.3193 30.8513 36.3193 30.8977C36.3193 30.9366 36.3332 30.9699 36.3611 30.9979C36.3896 31.0253 36.426 31.0483 36.4702 31.0668C36.5145 31.0848 36.5609 31.0997 36.6094 31.1115C36.6579 31.1229 36.7025 31.1321 36.7432 31.1392L36.9658 31.179C37.0229 31.1889 37.0864 31.2027 37.1563 31.2202C37.227 31.2377 37.2944 31.2616 37.3586 31.2919C37.4235 31.3217 37.4771 31.3601 37.5191 31.407C37.5612 31.4538 37.5823 31.5114 37.5823 31.5795C37.5823 31.6581 37.5513 31.7292 37.4892 31.7926C37.4278 31.8561 37.3379 31.9065 37.2195 31.9439C37.1017 31.9813 36.9587 32 36.7903 32C36.6333 32 36.4973 31.9832 36.3825 31.9496C36.2683 31.916 36.1784 31.8691 36.1127 31.8089C36.0478 31.7488 36.0111 31.679 36.0025 31.5994H36.2765C36.2836 31.6544 36.3115 31.6998 36.36 31.7358C36.4092 31.7713 36.4713 31.7978 36.5462 31.8153C36.6219 31.8324 36.7032 31.8409 36.7903 31.8409C36.8916 31.8409 36.9826 31.83 37.0632 31.8082C37.1438 31.786 37.2077 31.7552 37.2548 31.7159C37.3019 31.6761 37.3254 31.6297 37.3254 31.5767C37.3254 31.5284 37.3051 31.4891 37.2644 31.4588C37.2237 31.4285 37.1702 31.4039 37.1039 31.3849C37.0375 31.366 36.9658 31.3494 36.8887 31.3352L36.619 31.2841C36.4478 31.2514 36.3122 31.2048 36.2123 31.1442C36.1124 31.0836 36.0624 31.0043 36.0624 30.9062C36.0624 30.8248 36.0956 30.7538 36.162 30.6932C36.229 30.6321 36.319 30.5848 36.4317 30.5511C36.5452 30.517 36.6718 30.5 36.8117 30.5C36.9529 30.5 37.0785 30.5168 37.1884 30.5504C37.2983 30.5836 37.3854 30.629 37.4496 30.6868C37.5145 30.7446 37.5488 30.8101 37.5523 30.8835H37.2955Z" fill="#373737"/>
<path d="M38.2706 30.5199V32H38V30.5199H38.2706Z" fill="#373737"/>
<path d="M31.8599 15.3677L31.4008 16.0274C33.9485 16.5552 36.173 18.1787 36.9668 18.9244V17.9779L42.2458 17.605L45.0001 30.5411L43.7377 13.1018L38.2578 16.2856C36.261 17.6394 33.1605 16.2378 31.8599 15.3677Z" fill="#129438"/>
<path d="M32.3064 14.5036L33.9498 12.2034C34.9641 13.5178 37.0802 13.8933 38.0115 13.9168L36.955 16.0058C35.8515 16.8508 33.3394 15.7711 32.682 15.419C32.1561 15.1374 32.2125 14.6914 32.3064 14.5036Z" fill="#129438"/>
<path d="M36.4854 12.485C35.1895 11.809 34.255 11.9843 33.9498 12.1564C35.0392 13.6962 37.1115 13.9559 38.0115 13.8933C38.0428 13.7056 37.7814 13.161 36.4854 12.485Z" fill="#E1E1E1"/>
<path d="M14.246 42.4048L16.5934 39.3156C17.4366 40.7333 19.5157 40.9121 20.4499 40.8243C19.7313 41.8301 18.2941 43.8656 18.2941 43.9614C15.8413 44.2296 14.5734 43.0354 14.246 42.4048Z" fill="#129438"/>
<defs>
<linearGradient id="paint0_linear_4885_128398" x1="41.2873" y1="28.1565" x2="15.7999" y2="28.0783" gradientUnits="userSpaceOnUse">
<stop stop-color="#DBDBDB"/>
<stop offset="1" stop-color="#EEEEEE"/>
</linearGradient>
</defs>
</svg>
