<!-- by TradingView --><svg width="56" height="56" viewBox="0 0 56 56" xmlns="http://www.w3.org/2000/svg"><path fill="#F0F3FA" d="M0 0h56v56H0z"/><path d="m36 21.98-4.6.96c0 1.78.05 5.82.05 7.73 0 1.92 1.3 2.75 1.95 2.92l2.6-.72V21.98Z" fill="#F9CE97"/><path d="M31.38 23H19.42l.35 5.77c.28 1.74 2.03 2.62 2.86 2.83 6.51 1.75 9.99 2.07 10.9 1.98L31.38 23Z" fill="#F9CE97"/><path d="m31.32 24.62-11.8-.45.03-.5 11.79.45-.02.5Z" fill="#9D6D3D"/><path d="m36 22.9-5 1.27v1.4l5-1.32V22.9ZM36 25l-5 1.4v4.27c0 1.92 1.75 2.75 2.4 2.92l2.6-.72V25Z" fill="#9D6D3D"/><path d="M26.66 24.85h-.72a.5.5 0 0 0-.04-.17.37.37 0 0 0-.1-.12.37.37 0 0 0-.13-.09.53.53 0 0 0-.18-.03.51.51 0 0 0-.3.1.54.54 0 0 0-.2.24 1.1 1.1 0 0 0-.06.4c0 .16.03.3.07.4.04.12.1.2.19.25.08.06.18.09.3.09.06 0 .12-.01.17-.03l.14-.07a.38.38 0 0 0 .09-.12l.05-.15h.72a1.12 1.12 0 0 1-.69.9 1.33 1.33 0 0 1-1.16-.07c-.18-.1-.33-.25-.44-.46-.11-.2-.17-.45-.17-.74 0-.3.06-.55.17-.75.11-.2.26-.35.46-.46a1.46 1.46 0 0 1 1.1-.09c.14.05.26.12.36.2.1.1.2.2.26.33s.1.27.11.44ZM23.06 27h.71l.76 1.78h.03L25.3 27h.72v2.65h-.56v-1.72h-.03l-.7 1.71h-.39l-.7-1.72h-.03v1.73h-.56V27ZM26.98 29.65h-.62L27.3 27h.75l.94 2.65h-.62l-.68-2.04h-.02l-.7 2.04Zm-.04-1.04h1.47v.44h-1.47v-.44Z"/><path d="m20.38 32.59 1.1-1.5s.63.39 1.4.58l-1.16 1.94-1.34-1.02ZM25.33 33.55l1.83-.85-.66-.15-1.35.6.18.4ZM30.64 34.5l2.11-.92-.75-.05-1.82.59.46.38Z" fill="#4B4B55"/><ellipse cx="24.03" cy="34.75" rx="1.24" ry="1.81" fill="#4B4B55"/><ellipse cx="23.9" cy="34.78" rx=".85" ry="1.01" fill="#B8BCC8"/><ellipse cx="23.84" cy="34.78" rx=".45" ry=".61" fill="#4B4B55"/><ellipse cx="29.37" cy="36.02" rx="1.44" ry="2.11" fill="#4B4B55"/><path d="M27.26 17.07c-3.56.1-6.15 3.82-7 5.67V23h11.1l3.75-.82c-1.12-1.73-4.3-5.2-7.85-5.11Z" fill="#C1C1C1"/><ellipse cx="28.08" cy="18.85" rx=".41" ry=".42" fill="#6C6C6C"/><ellipse cx="29.3" cy="36.19" rx=".89" ry="1.22" fill="#B8BCC8"/><ellipse cx="29.2" cy="36.19" rx=".51" ry=".71" fill="#4B4B55"/><ellipse cx="29.32" cy="19.4" rx=".41" ry=".42" fill="#6C6C6C"/><ellipse cx="31.75" cy="19.68" rx=".41" ry=".42" fill="#6C6C6C"/><ellipse cx="29.96" cy="18.22" rx=".41" ry=".42" fill="#6C6C6C"/><ellipse cx="28.91" cy="18.02" rx=".41" ry=".42" fill="#6C6C6C"/><ellipse cx="26.89" cy="18.22" rx=".41" ry=".42" fill="#6C6C6C"/><ellipse cx="25.84" cy="19.05" rx=".41" ry=".42" fill="#6C6C6C"/><ellipse cx="24.8" cy="18.43" rx=".41" ry=".42" fill="#6C6C6C"/><ellipse cx="23.11" cy="20.33" rx=".41" ry=".42" fill="#6C6C6C"/><ellipse cx="23.93" cy="21.51" rx=".41" ry=".42" fill="#6C6C6C"/><ellipse cx="25.45" cy="20.24" rx=".41" ry=".42" fill="#6C6C6C"/><ellipse cx="27.08" cy="20.33" rx=".41" ry=".42" fill="#6C6C6C"/><ellipse cx="28.59" cy="20.75" rx=".41" ry=".42" fill="#6C6C6C"/><ellipse cx="30.38" cy="21.59" rx=".41" ry=".42" fill="#6C6C6C"/><ellipse cx="30.38" cy="20.33" rx=".41" ry=".42" fill="#6C6C6C"/><ellipse cx="31.75" cy="21.59" rx=".41" ry=".42" fill="#6C6C6C"/><ellipse cx="33.13" cy="21.78" rx=".41" ry=".42" fill="#6C6C6C"/><ellipse cx="25.02" cy="22.35" rx=".41" ry=".42" fill="#6C6C6C"/><ellipse cx="26.67" cy="21.93" rx=".41" ry=".42" fill="#6C6C6C"/><ellipse cx="28.66" cy="22.05" rx=".41" ry=".42" fill="#6C6C6C"/><ellipse cx="22.08" cy="22.19" rx=".41" ry=".42" fill="#6C6C6C"/><path d="M36 34.2a42.28 42.28 0 0 0-2.01-3.97l1.86-.7a23.14 23.14 0 0 1 1.56 6.52l-1.41.99v-2.85Z" fill="#BC8F56"/><path d="M34 34.65V30.2c1.34 2.39 2 3.62 2 3.93v2.9c-.93-.36-1.84-1.74-2-2.38Z" fill="url(#adydzxe3o)"/><path d="m13.86 37.57-.5.51.31.53 2.2-2.45-.25-.44-3.23.71.31.53.7-.17.46.78Zm.02-.9 1.15-.31-.83.85-.32-.55ZM17.37 38.77l.35-.31-1.34-1.49-.34.31.51.57-2 1.8.3.33 2-1.8.52.59ZM17.35 41.5l-.32.65.45.4 1.39-2.98-.37-.33-2.87 1.63.45.41.61-.37.66.6Zm-.23-.86 1-.62-.54 1.04-.46-.42ZM20.58 43.2l-.46-.32a.82.82 0 0 1-.18.17.49.49 0 0 1-.19.08.43.43 0 0 1-.2-.02.75.75 0 0 1-.34-.22.49.49 0 0 1-.07-.14.5.5 0 0 1-.02-.16l.02-.16a2.21 2.21 0 0 1 .25-.5l.25-.34a2.26 2.26 0 0 1 .3-.35.8.8 0 0 1 .21-.13.47.47 0 0 1 .2-.04l.15.03c.05.01.1.04.14.07.08.05.13.1.18.17.04.06.06.12.07.18 0 .07 0 .14-.02.2a.96.96 0 0 1-.1.23l.46.32c.08-.13.13-.27.16-.4a.93.93 0 0 0-.16-.75 1.33 1.33 0 0 0-.63-.47.99.99 0 0 0-.3-.05 1.12 1.12 0 0 0-.66.2 1.93 1.93 0 0 0-.48.47l-.23.34a2 2 0 0 0-.29.63 1.07 1.07 0 0 0 .03.6c.03.1.09.2.16.3a1.33 1.33 0 0 0 .67.44c.13.03.26.04.4.02a.98.98 0 0 0 .36-.12c.12-.07.22-.16.32-.28ZM23.82 44l.15-.4a1.95 1.95 0 0 0 .12-.73c-.01-.1-.04-.2-.07-.3a1.06 1.06 0 0 0-.37-.5 1.23 1.23 0 0 0-.97-.22c-.1.03-.2.07-.29.12a1.55 1.55 0 0 0-.46.47c-.06.1-.12.21-.17.33l-.15.4-.1.34a1.5 1.5 0 0 0 .04.66c.03.1.07.2.13.28a1.08 1.08 0 0 0 .54.4 1.25 1.25 0 0 0 .65.06 1.29 1.29 0 0 0 .79-.58c.06-.1.11-.22.16-.33Zm-.4-.61-.15.4a1.82 1.82 0 0 1-.2.38.87.87 0 0 1-.15.16.55.55 0 0 1-.18.1.45.45 0 0 1-.17.03.58.58 0 0 1-.19-.04.55.55 0 0 1-.17-.1.45.45 0 0 1-.1-.13.53.53 0 0 1-.06-.19v-.22a1.36 1.36 0 0 1 .11-.4l.16-.4a2.23 2.23 0 0 1 .2-.4c.04-.06.09-.12.14-.16a.56.56 0 0 1 .18-.1c.05-.02.1-.02.16-.02.05 0 .11.01.18.04.06.02.11.05.16.09.04.03.08.08.1.12.04.06.06.12.08.2v.22l-.03.2-.07.22ZM26.67 45.02l-.55-.09a.82.82 0 0 1-.1.23.49.49 0 0 1-.13.15.43.43 0 0 1-.19.07.75.75 0 0 1-.4-.06.49.49 0 0 1-.13-.1.5.5 0 0 1-.08-.12.75.75 0 0 1-.05-.16 1.15 1.15 0 0 1-.02-.25c0-.1.02-.2.04-.3l.07-.42a2.23 2.23 0 0 1 .13-.45.8.8 0 0 1 .13-.2c.05-.06.1-.1.17-.12a.43.43 0 0 1 .14-.04h.16c.09.02.17.04.23.08.06.03.1.08.14.14.04.05.06.12.07.19.02.07.02.15.01.25l.56.09c0-.16 0-.3-.04-.44a.93.93 0 0 0-.46-.6 1.34 1.34 0 0 0-.77-.16 1 1 0 0 0-.58.27 1.5 1.5 0 0 0-.36.56c-.05.1-.08.22-.1.34l-.07.4a1.99 1.99 0 0 0 .01.7 1.07 1.07 0 0 0 .29.54 1 1 0 0 0 .26.19c.1.05.22.09.35.1.16.03.3.03.45.01a.98.98 0 0 0 .65-.41c.08-.11.14-.24.17-.39ZM29.35 45.92l.02-3.13h-.52l-.01 1.27h-.92V42.8h-.52l-.01 3.13h.52v-1.31h.93v1.31h.51ZM31.9 44.9l.33.63.58-.12-1.59-2.86-.47.1-.32 3.27.58-.12.04-.71.86-.19Zm-.81-.31.06-1.18.53 1.05-.6.13ZM35.94 43.15c.02.06.03.12.02.17 0 .05-.02.1-.04.15a.44.44 0 0 1-.11.12.74.74 0 0 1-.39.14.48.48 0 0 1-.36-.15.71.71 0 0 1-.13-.21l-.45.16a1 1 0 0 0 .21.35c.1.1.2.16.3.21a1 1 0 0 0 .4.07 1.2 1.2 0 0 0 .73-.24c.1-.08.17-.16.23-.26.05-.1.09-.2.1-.31a.81.81 0 0 0-.06-.37.84.84 0 0 0-.22-.34 1 1 0 0 0-.33-.2 1.26 1.26 0 0 0-.29-.06c-.1-.01-.2-.02-.3-.01h-.23a.9.9 0 0 1-.21-.04.42.42 0 0 1-.16-.08.4.4 0 0 1-.12-.31.36.36 0 0 1 .15-.28c.04-.04.1-.07.16-.1a.51.51 0 0 1 .2-.03c.07 0 .13.02.18.05.06.02.1.06.14.11.04.05.08.1.1.17l.46-.16a.96.96 0 0 0-.49-.54 1.02 1.02 0 0 0-.73-.01c-.12.04-.23.1-.33.18a.88.88 0 0 0-.32.58c0 .12 0 .23.05.36a.83.83 0 0 0 .42.46c.1.05.2.08.33.1a2 2 0 0 0 .4.02h.26l.2.05a.43.43 0 0 1 .23.25ZM37.15 42.54c.06.1.14.18.24.21.1.04.2.03.3-.03.1-.06.15-.14.17-.24.02-.1 0-.2-.06-.3a.47.47 0 0 0-.24-.22.33.33 0 0 0-.3.02.33.33 0 0 0-.18.25c-.01.1.01.2.07.31ZM39.6 40.49l.59.4.43-.36-2.73-1.8-.36.3 1.29 3 .44-.36-.3-.64.64-.54Zm-.85.09-.5-1.06.95.68-.45.38ZM40.75 39.36c.1.08.2.12.3.12.1 0 .19-.04.26-.13.08-.09.1-.19.09-.29a.45.45 0 0 0-.17-.27.47.47 0 0 0-.3-.12c-.1 0-.2.04-.27.13a.33.33 0 0 0-.08.29c.02.1.08.2.17.27ZM42.5 36.65l.7.18.28-.5-3.2-.75-.23.42 2.23 2.4.3-.5-.5-.51.42-.74Zm-.78.38-.83-.83 1.13.32-.3.51ZM43.36 35.41c.11.04.22.04.32.01s.17-.1.2-.21c.05-.11.04-.21-.01-.3a.45.45 0 0 0-.25-.2.47.47 0 0 0-.33-.01c-.1.03-.17.1-.2.21a.33.33 0 0 0 .02.3.5.5 0 0 0 .25.2ZM13.8 25.84l-.06.48c.09.02.17.04.23.07.07.04.12.07.16.12.04.04.07.1.09.15a.56.56 0 0 1-.04.35.4.4 0 0 1-.2.2 1.33 1.33 0 0 1-.4.07c-.1 0-.21 0-.32-.02l-.42-.05a2.62 2.62 0 0 1-.45-.1.87.87 0 0 1-.21-.1.44.44 0 0 1-.19-.26.51.51 0 0 1 .06-.34c.03-.05.07-.1.13-.13a.51.51 0 0 1 .19-.06c.07-.02.15-.02.24-.02l.06-.48c-.16 0-.3.01-.44.04a.96.96 0 0 0-.33.16.82.82 0 0 0-.24.27 1.01 1.01 0 0 0-.1.67c.02.09.05.17.1.25.05.09.12.17.2.24a1.68 1.68 0 0 0 .59.3l.34.05.41.05a2.3 2.3 0 0 0 .7-.04 1.03 1.03 0 0 0 .52-.27.84.84 0 0 0 .16-.23 1 1 0 0 0 .06-.69.86.86 0 0 0-.16-.31.97.97 0 0 0-.3-.23c-.1-.07-.24-.11-.39-.14ZM14.01 22l-.4-.1a2.05 2.05 0 0 0-.74-.02c-.1.02-.2.05-.3.1a.97.97 0 0 0-.44.4 1.14 1.14 0 0 0-.1.95c.03.09.08.18.15.26a1.58 1.58 0 0 0 .52.39c.1.05.22.09.35.12l.41.1a2.2 2.2 0 0 0 .68.04c.11-.02.22-.05.32-.09.1-.04.18-.1.26-.16a1.02 1.02 0 0 0 .33-.55 1.14 1.14 0 0 0-.01-.62 1.27 1.27 0 0 0-.67-.69c-.12-.05-.23-.1-.36-.12Zm-.55.45.42.1a1.91 1.91 0 0 1 .4.15l.18.13c.05.05.09.1.12.16l.05.16c0 .05 0 .11-.02.18a.51.51 0 0 1-.08.17.43.43 0 0 1-.12.11.53.53 0 0 1-.17.08 1.44 1.44 0 0 1-.64-.04l-.42-.1a2.27 2.27 0 0 1-.4-.15.87.87 0 0 1-.19-.12.55.55 0 0 1-.12-.16.4.4 0 0 1-.04-.14c0-.06 0-.11.02-.18a.5.5 0 0 1 .07-.16.49.49 0 0 1 .1-.12.56.56 0 0 1 .19-.08 1.16 1.16 0 0 1 .43-.02l.22.03ZM13.32 18.85l-.39.67 2.72 1.55.29-.5-.86-.5-1.21-.65 1.41.29.16-.28-.99-1.14 1.23.74.86.49.3-.5-2.73-1.55-.39.67.88 1-1.28-.3ZM17.32 16.9l.33-.38c.1-.11.17-.23.22-.36a.88.88 0 0 0-.03-.72 1.02 1.02 0 0 0-.26-.31 1.1 1.1 0 0 0-.35-.21.9.9 0 0 0-.74.06c-.11.06-.22.15-.32.26l-.64.73 2.37 2.05.3-.35-.88-.77Zm-.35-.3-.79-.68.33-.38a.5.5 0 0 1 .36-.18c.07 0 .13.02.2.04a.7.7 0 0 1 .3.27.45.45 0 0 1 .04.37.54.54 0 0 1-.1.18l-.34.38ZM20.7 14.87l.5.5.53-.31-2.44-2.2-.43.25.72 3.2.52-.3-.18-.69.77-.45Zm-.9-.03-.3-1.14.84.82-.54.32ZM24.57 13.97l-.93-3-.5.17.6 1.98-1.46-1.72-.52.15.93 3 .51-.16-.61-2 1.47 1.73.51-.15ZM29.1 12.8l.19.68h.59l-.97-3.13h-.48l-.99 3.13h.6l.19-.68h.87Zm-.74-.48.3-1.14.3 1.14h-.6ZM34.39 11.63l-.71-.35-1.38 2.81.53.26.44-.9.57-1.24-.19 1.43.29.14 1.08-1.06-.66 1.27-.43.9.53.25 1.37-2.8-.7-.35-.95.94.2-1.3ZM38.52 18.34l2.25-2.17-.4-.42-1.5 1.44.81-2.14-.4-.43-2.26 2.17.4.42 1.51-1.44-.82 2.15.4.42ZM41.42 20.05l.39-.23-.64-1.04.71-.44.75 1.22.39-.24L42 17.65l-2.68 1.62 1.02 1.67.4-.23-.75-1.22.8-.48.63 1.04ZM42.34 22.56l-.9.95.22.49.02-.01.97-1.05c.07.05.13.1.2.13a.84.84 0 0 0 .5.08c.1-.01.19-.04.29-.08.14-.06.26-.14.35-.23a.75.75 0 0 0 .2-.3.89.89 0 0 0 .03-.36 1.26 1.26 0 0 0-.1-.4l-.36-.84-2.89 1.21.2.46 1.1-.46.17.41Zm.25-.58.95-.4.16.38a.6.6 0 0 1 .05.2c0 .06 0 .12-.03.18a.4.4 0 0 1-.1.16.66.66 0 0 1-.2.12.63.63 0 0 1-.2.05.42.42 0 0 1-.35-.12.58.58 0 0 1-.12-.19l-.16-.38ZM42.54 26.68l-.68.2v.63L45 26.47l-.01-.5-3.15-1.04.01.63.69.2.01.92Zm.47-.78 1.15.32-1.14.32v-.64ZM21.84 10.63c.05.13.1.22.18.28.07.06.14.1.22.1a.52.52 0 0 0 .44-.15c.05-.05.1-.13.16-.23l.1-.15a.23.23 0 0 1 .1-.07.2.2 0 0 1 .17.01c.06.04.1.1.13.19l.25-.1a.63.63 0 0 0-.17-.27.42.42 0 0 0-.23-.1.52.52 0 0 0-.43.15c-.05.05-.1.13-.17.24a.97.97 0 0 1-.1.15.23.23 0 0 1-.1.06.21.21 0 0 1-.17 0c-.05-.03-.1-.1-.13-.2l-.25.1ZM25.4 10.69l.52-.1.49 2.88-.52.1zM37.47 13.39l.42.32-1.74 2.33-.42-.32z" fill="#303030"/><defs><linearGradient id="adydzxe3o" x1="35" y1="30.2" x2="35" y2="37.02" gradientUnits="userSpaceOnUse"><stop stop-color="#D2A15F"/><stop offset="1" stop-color="#FAD7B1"/></linearGradient></defs></svg>