<!-- by TradingView --><svg width="56" height="56" viewBox="0 0 56 56" xmlns="http://www.w3.org/2000/svg"><path fill="#F0F3FA" d="M0 0h56v56H0z"/><path d="M7.12 38.09 6 39.27c.37-.42.74-.81 1.12-1.18 2.6-2.7 9.2-8.98 14.91-8.98 2.54 0 3.66.99 5.48 4.5L40.15 19h-26.6c1.78-2.58 7.46-8 14.73-8C37.38 11 45 18.41 45 27.17 45 37.35 38.17 44 28.28 44c-2.46-.05-8.33-1.06-12.1-4.73.25.03.9.1 1.6.14.87.06 2.39-.7 2.39-3.3 0-2.62-2.81-3.01-4.1-3.01-1.17 0-5.12 1.2-8.95 4.99Z" fill="#033F85"/><path d="M27.52 12.5v30a20.57 20.57 0 0 0 9.96-3.34c3.34-2.29 6-5.96 6-11.65a17.6 17.6 0 0 0-3.63-9.36c-2.45-3.1-6.34-5.58-12.33-5.65Zm-.52-.15c0-.2.17-.35.36-.35 6.25.03 10.34 2.62 12.9 5.84A18.08 18.08 0 0 1 44 27.5v.01c0 5.88-2.76 9.7-6.22 12.07A21.1 21.1 0 0 1 27.38 43a.35.35 0 0 1-.38-.35v-30.3Z" fill="#F0F3FA"/><path d="M27.52 12.61v29.87a7.1 7.1 0 0 0 2.77-1.29c1.1-.77 2.26-1.86 3.31-3.2a17.2 17.2 0 0 0 3.77-10.48c-.2-4.97-2.23-11.88-9.85-14.9ZM27 12.4c0-.25.26-.4.5-.32 8.07 3.08 10.18 10.32 10.39 15.42v.01c0 4.26-1.72 8.04-3.88 10.79a16.5 16.5 0 0 1-3.42 3.3 7.23 7.23 0 0 1-3.2 1.4.35.35 0 0 1-.39-.34V12.39Z" fill="#F0F3FA"/><path d="M27.36 33.5h15.1v.5h-15.1v-.5ZM27.36 38h11.6v.5h-11.6V38ZM27.36 29.5h16.38v.5H27.36v-.5ZM27.36 24.99h15.96v.5H27.36v-.5Z" fill="#F0F3FA"/><path d="m12.46 21-.53 1h24.6l1.09-1H12.46Z" fill="#033F85"/><path d="m11.36 25 .3-2h24.02l-5.06 6c-2.19-3.2-5.44-4-6.8-4H11.37Z" fill="#F0201E"/></svg>