<!-- by TradingView --><svg width="56" height="56" viewBox="0 0 56 56" xmlns="http://www.w3.org/2000/svg"><path fill="#F0F3FA" d="M0 0h56v56H0z"/><path d="M5 23v10h5.44c1.7 0 3.06-1.3 3.06-2.9 0-.57-.4-1.79-2-2.18.57-.13 1.5-.79 1.5-2.44 0-1.37-.96-2.48-2.4-2.48H5Zm3 4v-2h1.48c.56 0 1.02.45 1.02 1s-.46 1-1.02 1H8Zm0 4v-2h1.48c.56 0 1.02.45 1.02 1s-.46 1-1.02 1H8Z" fill="#273882"/><path fill-rule="evenodd" d="M15.5 27.63v-1.97a7 7 0 0 1 2.97-.66C20.2 25 22 26.02 22 27.78V33h-2.5v-1.03l-.01.01c-.4.47-.88 1.02-2.2 1.02-1.64 0-2.79-.73-2.79-2.43 0-1.7 1.66-3.01 5-2.43 0-.47-.26-1.14-1.66-1.14s-2.13.42-2.34.63Zm4 1.82c-.1.61-.62 1.82-1.8 1.82-.4-.02-1.2-.23-1.2-.88 0-.82 1.02-.94 3-.94Z" fill="#273882"/><path d="m29 25.45-.15 1.96c0-.07-.77-.41-1.42-.41-.65 0-1.93.55-1.93 2s.96 2 1.93 2a3 3 0 0 0 1.57-.37v1.98c-.33.13-1.17.39-1.91.39-.93 0-4.09-.48-4.09-3.9 0-3.44 2.86-4.1 4.09-4.1.97 0 1.68.3 1.91.45Z" fill="#273882"/><path d="M31.24 25h3.09l-2.85 4h-3.02l2.78-4Z" fill="#273882"/><path d="M30.57 30.44a3.46 3.46 0 0 0-2.1-1.44h2.97c1.19 0 2.66 1.54 3.9 3.78a3.58 3.58 0 0 0 3.4 1.94c-6.19 1.45-7.52-3.15-8.17-4.28Z" fill="#E1331A"/><path d="M35 30.09V25h2.5v4.46c0 1.42.98 1.59 1.4 1.54 1.28 0 1.63-1.66 1.6-2.37V25H43v8h-2.5v-1.64C40 32.68 38.6 33 37.9 33h-.14A2.84 2.84 0 0 1 35 30.09ZM50.51 25.47l-.3 1.84c-1.5-.8-3.52-.6-3.52 0 0 .48 1.6.87 2.4 1.01.64.2 1.91.85 1.91 2 0 1.41-1.05 2.68-3.54 2.68-2 0-3.1-.24-3.39-.36l.22-1.91c.63.34 1.81.55 2.55.55.74 0 1.28-.04 1.28-.68 0-.52-1.35-.87-2.02-.99-.7-.16-2.1-.8-2.1-2.14C44 25.8 46.02 25 47.68 25a8.5 8.5 0 0 1 2.83.47Z" fill="#273882"/></svg>