<!-- by TradingView --><svg width="56" height="56" viewBox="0 0 56 56" xmlns="http://www.w3.org/2000/svg"><path fill="#004284" d="M0 0h56v56H0z"/><path d="M13.57 23c.73 0 1.36.22 1.9.65.58.45.91 1.05 1.01 1.78.15 1.15-.21 2.03-1.08 2.63-.02.02-.02.03 0 .04.98.44 1.51 1.22 1.59 2.35.07 1.12-.22 1.99-.88 2.62-.62.6-1.47.9-2.56.92H8.3c-.13 0-.2-.03-.25-.08-.03-.04-.04-.14-.04-.28V23.21a.2.2 0 0 1 .2-.2h5.37Zm11 0c.73 0 1.37.22 1.9.65.58.46.92 1.05 1.01 1.78.15 1.15-.21 2.03-1.08 2.64-.02 0-.02.02 0 .03.98.44 1.51 1.22 1.59 2.35.07 1.12-.22 2-.88 2.63-.62.6-1.47.9-2.56.9-1.12.02-2.87.02-5.26.01-.13 0-.21-.03-.25-.08-.03-.04-.04-.14-.04-.28V23.21c0-.05.02-.1.06-.14a.2.2 0 0 1 .14-.07h5.37Zm14.78 0c.1 0 .15.06.15.16 0 .02 0 .05-.03.09l-5.5 10.57c-.06.12-.13.18-.22.18-.08 0-.16-.06-.22-.18l-5.5-10.57a.19.19 0 0 1-.03-.1c0-.09.05-.14.15-.14h1.61c.16 0 .28.06.35.2l3.42 6.68c.07.14.14.2.22.21.08 0 .15-.07.22-.2l3.42-6.7c.07-.13.19-.2.35-.2h1.61Zm-18.4 6.07c-.05 0-.1.02-.13.05a.19.19 0 0 0-.06.14v2.93c0 .06.02.1.05.14.04.04.08.05.13.05l3.68.01c.44 0 .82-.14 1.14-.42.31-.29.47-.63.47-1.03v-.4c0-.4-.15-.75-.47-1.04-.31-.28-.7-.42-1.14-.42l-3.67-.01Zm-11.01 0c-.05 0-.1.02-.13.06a.19.19 0 0 0-.05.13v2.94a.18.18 0 0 0 .18.19h3.68c.44 0 .82-.14 1.14-.42.31-.28.47-.62.47-1.01v-.45c0-.4-.16-.74-.47-1.02-.32-.28-.7-.42-1.14-.42H9.94ZM43.25 21c.08 0 .16.06.22.18l5.5 10.57.03.1c0 .1-.05.14-.15.14l-1.61.01a.36.36 0 0 1-.35-.2l-3.42-6.7c-.07-.13-.14-.2-.22-.2-.08 0-.15.07-.22.2l-3.42 6.7a.36.36 0 0 1-.35.2h-1.6c-.1 0-.16-.06-.16-.16 0-.02 0-.05.03-.09l5.5-10.57c.06-.12.14-.18.22-.18Zm-33.3 3.6a.2.2 0 0 0-.19.2v2.47c0 .05.02.1.05.14.04.03.09.05.14.05h3.36c.4 0 .74-.13 1.02-.39.28-.25.42-.57.42-.94v-.2c0-.37-.14-.68-.42-.94a1.45 1.45 0 0 0-1.02-.39H9.95Zm11 0c-.05 0-.1.02-.13.06a.19.19 0 0 0-.05.14v2.47c0 .05.01.1.05.14.04.03.08.05.13.05h3.35c.4 0 .74-.13 1.03-.38.28-.26.42-.57.42-.93v-.23c0-.36-.14-.67-.42-.93a1.47 1.47 0 0 0-1.03-.38h-3.35Z" fill="#fff"/></svg>