<!-- by TradingView --><svg width="56" height="56" viewBox="0 0 56 56" xmlns="http://www.w3.org/2000/svg"><path fill="#F0F3FA" d="M0 0h56v56H0z"/><path d="M40 21.09V32h2V20.99c0-5.52-3.76-9.99-9.56-9.99h-2.48c-4.98 0-9.02 3.84-9.02 8.58H23C23 16.2 25.77 13 30 13h2.27c4.4 0 7.73 3.89 7.73 8.09Z" fill="#A4A7AC"/><path d="m18.77 20.2 2.87-1.2 3.17 2.34v3.78l-2.57 1.36v-3.51l-3.47-2.77Zm6.49-1.13h2.71L29.65 22l-1.36 3-2.53.22 1.26-2.79-1.76-3.36Zm8.22 2.8-2.14-1.37-.24 3.5-2.35 1.54 2.1 1.1 2.53-1.66.1-3.11Zm2.07 3.24.81 1.92-1.58 2.12h-2.56l-.93-1.72h2.38l1.88-2.32Zm1.45 7.1v-1.98l-2.46 1.22-1.8-1.01v1.96l1.87 1.3L37 32.22Zm-.4 3.47-.98 1.75-2.83.22-1.02-2 .96-1.73 1.1 1.71 2.77.05Zm-4.51 6.56 2.24-.93-2.53-2 .29-2.36-2.22.92-.57 2.57 2.79 1.8Zm-3.05 2.27-2.76-.06-1.99-3.13 1.86-2.39 2.72.06-1.45 2.3 1.62 3.22ZM14.96 23.28l-1.5 2.69 4.63.36 2.33 3.01 1.15-2.65-2.5-3.23-4.1-.18ZM12 33.72v-3.1l4.14-1.95 4.05 1.94.23 3.1-3.77-1.81L12 33.72Zm1.54 5.66 2.05 2.4 2.4-4.25 4.1-.9-2.22-2.26-4.41.97-1.92 4.04ZM22.45 45l-2.57-1.05-.2-3.85 2.98-2.45 2.64.87-2.78 2.29-.07 4.19Z" fill="url(#abv33hhgl)"/><defs><linearGradient id="abv33hhgl" x1="11.66" y1="32" x2="38.02" y2="31.5" gradientUnits="userSpaceOnUse"><stop offset=".48" stop-color="#133457"/><stop offset="1" stop-color="#9AB66C"/></linearGradient></defs></svg>