<!-- by TradingView --><svg width="56" height="56" viewBox="0 0 56 56" xmlns="http://www.w3.org/2000/svg"><path fill="#F0F3FA" d="M0 0h56v56H0z"/><path d="M15 41.88V25.67c1.88 0 4.68-2.28 5.84-3.42 1.46.15 5.44 6.33 7.24 9.4-.84 2.92-.35 9.45 0 12.35H17.2c-1.22 0-2.2-.95-2.2-2.12Z" fill="#339156"/><path d="M15 14.12V24.3c4-2.2 5.12-4.04 5.59-4.54.37-.4.52-.4.55-.35 1.84.2 5.82 6.3 7.58 9.33A148.24 148.24 0 0 1 36.37 12H17.2c-1.22 0-2.2.95-2.2 2.12Z" fill="#E35238"/><path d="M38.8 44h-8.08c-1.4-9.2.5-16.13 1.64-18.45 1.23 1.64 4.04 3.51 5.3 4.24-1.87-1.94-3.1-5-3.5-6.3l-.88.3L38.88 12c1.17 0 2.12.92 2.12 2.05v27.82c0 1.18-.98 2.13-2.2 2.13Z" fill="#747476"/></svg>