<!-- by TradingView --><svg width="56" height="56" viewBox="0 0 56 56" xmlns="http://www.w3.org/2000/svg"><path fill="#2C334D" d="M0 0h56v56H0z"/><path d="M48.1 24.08c-.03.03-.1 2.8-.12 4.19l-.12.83-.07 2.84.76.06.12-5.97c.08.85.25 2.55.28 2.52.04-.02.51-2.74.74-4.1l-.14 4.65-.37 2.84h2.7v-7.86h-3.77Zm-3.33.73.88 2.53-.07-3.25h1.87v7.85h-2.26L44.65 27l.7 2.6-.58-4.79Z" fill="#83A750"/><path fill-rule="evenodd" d="M5 28.1c0-1.21.53-3.1 2.43-3.1 1.91 0 2.37 1.32 2.36 2H8.6a1.1 1.1 0 0 0-1.17-.98c-1.07 0-1.23 1.5-1.23 2.07 0 .57.07 1.87 1.23 1.87.94 0 1.17-.79 1.17-1.19H9.8c-.03.74-.55 2.23-2.36 2.23C5.63 31 5 29.13 5 28.1Zm6 0h-.95c.06-.36.48-1.1 1.68-1.1s1.54.66 1.56.99v2.4c0 .3.13.53.2.61h-1.13v-.46c-.21.32-.82.46-1.02.46-.19 0-1.39-.03-1.39-1.05s1.04-1.34 1.74-1.34c.67 0 .67-.28.67-.38v-.01c0-.09-.1-.5-.67-.5-.44 0-.65.26-.7.39Zm1.32 1.6v-.56c-.85 0-1.35.34-1.35.65 0 .15.04.49.56.49.42 0 .7-.4.8-.59Zm16.46-1.6h.95c.04-.12.25-.39.7-.39.56 0 .57.42.57.5v.05c.02.11.05.35-.57.35-.7 0-1.74.32-1.74 1.34S29.89 31 30.08 31c.2 0 .71-.14.92-.46V31h1.22a1 1 0 0 1-.22-.6v-2.41c-.02-.33-.34-.99-1.54-.99s-1.62.74-1.68 1.1ZM31 29.15v.55c-.09.2-.36.59-.76.59-.5 0-.54-.34-.54-.5 0-.3.48-.64 1.3-.64Zm-12.73-1.03h-.94c.06-.37.48-1.11 1.68-1.11s1.54.66 1.55.99v2.4c0 .3.14.53.2.61h-1.13v-.46c-.2.32-.81.46-1 .46-.2 0-1.4-.03-1.4-1.05s1.04-1.34 1.74-1.34c.67 0 .67-.28.67-.38v-.01c0-.09-.1-.5-.67-.5-.44 0-.65.26-.7.39Zm1.33 1.58v-.55c-.85 0-1.35.34-1.35.65 0 .15.04.49.56.49.42 0 .7-.4.8-.59Zm-2.58-1.58h-1.06c0-.16-.13-.47-.67-.47-.53 0-.7.23-.7.36 0 .33.57.45 1 .54l.26.06c.92.24 1.16.87 1.17 1.15 0 .42-.35 1.25-1.73 1.25-1.37 0-1.79-.76-1.82-1.14h1.04c.05.15.28.46.78.46.63 0 .8-.22.8-.46 0-.3-.5-.4-.9-.47a7 7 0 0 1-.23-.05c-1.14-.25-1.35-.98-1.35-1.14 0-.17.09-1.2 1.68-1.2 1.28 0 1.69.74 1.73 1.11ZM23.49 25C21.54 25 21 26.89 21 28.1c0 1.03.64 2.9 2.49 2.9a2.4 2.4 0 0 0 1.51-.47V31h1v-3h-2.33v1h.99c-.08.41-.38.96-1.17.96-1.2 0-1.26-1.3-1.26-1.87 0-.57.16-2.07 1.26-2.07.87 0 1.16.67 1.2 1h1.2c.01-.67-.45-2.02-2.4-2.02Zm3.01 2h1v.37c.24-.2.61-.37 1.15-.37v.96a.95.95 0 0 0-1.15.44V31h-1v-4Zm7 0h-1v4h1v-2.6c.15-.3.42-.59.86-.59.3 0 .64.24.64.53V31h1v-2.63A1.4 1.4 0 0 0 34.56 27c-.42 0-.8.17-1.06.44V27Zm5.5 3.63V31h1v-6h-1v2.37a1.52 1.52 0 0 0-.98-.37c-.94 0-1.7.9-1.7 2s.76 2 1.7 2c.37 0 .7-.14.98-.37ZM39 29c0-.64-.34-1.15-.75-1.15s-.75.51-.75 1.15c0 .64.34 1.15.75 1.15S39 29.64 39 29Zm4.98.27L44 29c0-1.1-.78-2-1.75-2s-1.75.9-1.75 2 .78 2 1.75 2c.74 0 1.38-.53 1.63-1.27h-.92c-.16.32-.42.52-.71.52-.42 0-.76-.42-.85-.98h2.58Zm-2.56-.65c.11-.5.44-.87.83-.87.39 0 .72.36.83.87h-1.66Z" fill="#fff"/><path fill-rule="evenodd" d="M51.5 24.5h-47v6.99h47V24.5ZM4 24v7.99h48V24H4Z" fill="#fff"/><path d="m48.8 30.59-.52-6.56.73.09-.2 6.47Zm-2.61-6.47.07 7.82h.52v-7.82l.21 3.34.45-1.82-.1-1.52-.28-.08-.87.08Zm.94 4.39.22-.83v4.26l-.22-.08v-3.35Zm.67.87v-3.45l.38 2.47-.38.98Zm.4.3-.27 2.27h.75l-.48-2.27Zm-2.78.17-.02 1.28c.02-.3.23-1.83.33-2.63l-.17-3.6c-.05.14-.1 3.15-.14 4.95Z" fill="#fff"/></svg>