<!-- by TradingView --><svg width="56" height="56" viewBox="0 0 56 56" xmlns="http://www.w3.org/2000/svg"><path fill="#00509E" d="M0 0h56v56H0z"/><path d="M27.5 12h-1.88L16 26h3s2.37-1.87 4.41-2.48a17.2 17.2 0 0 1 3.97-.7l.14-.02a8.98 8.98 0 0 1 1.1.01c.62.05 2.1.14 3.97.7C34.63 24.14 37 26 37 26h3l-9.62-14H28.5v7.82c.92-.01 1.3-.01 2.26.1H31v-2.6l2.74 3.93s-1.79-.45-2.87-.67a15.37 15.37 0 0 0-5.74 0 83.5 83.5 0 0 0-2.87.67L25 17.32v2.6h.24c.96-.11 1.34-.11 2.26-.1V12Zm-2.49 11.65H25V26h2.5v-2.66c-.92 0-1.6.13-2.49.3Zm3.49-.3c.88 0 1.64.13 2.5.3V26h-2.5v-2.66ZM16.99 29h-1.4L14 33h1.17c.16-.37.68-.64 1.21-.72.28-.04.58-.08.71.11l.26.61h1.2L17 29Zm-.18 2.5h-1.06l.53-1.39.53 1.38Zm3.5-.12a.98.98 0 0 1 0-.76.94.94 0 0 1 .55-.53 1.52 1.52 0 0 1 1.08.04c.17.08.32.17.46.26l.54-.8a2.56 2.56 0 0 0-1.69-.59c-.32 0-.62.05-.89.15-.27.1-.5.24-.71.42A1.92 1.92 0 0 0 19 31a1.85 1.85 0 0 0 .65 1.43c.2.18.44.32.71.42.27.1.57.15.9.15a2.6 2.6 0 0 0 1.68-.6l-.54-.79c-.14.1-.29.18-.46.26a1.52 1.52 0 0 1-1.08.04.94.94 0 0 1-.55-.53ZM24 29v4h3.44v-1H25v-.56h2v-.93h-2V30h2.44v-1H24Zm5 0h1.93c.24 0 .45.03.64.08.2.06.36.14.5.25.14.11.24.25.32.42.08.17.12.37.12.6 0 .27-.09.52-.25.72-.17.2-.39.35-.66.44l1.14 1.25V33h-1.23l-1.19-1.4H30V33h-1v-4Zm1 1v.8h.82c.15 0 .26-.05.34-.12a.4.4 0 0 0 .12-.3.4.4 0 0 0-.12-.28c-.08-.08-.2-.1-.34-.1H30Zm3.56.2c-.11.25-.17.52-.17.8a1.9 1.9 0 0 0 .62 1.43c.2.18.43.32.69.42.26.1.55.15.86.15.3 0 .6-.05.86-.15a1.93 1.93 0 0 0 .7-3.28 2.1 2.1 0 0 0-.7-.42c-.26-.1-.55-.15-.86-.15-.31 0-.6.05-.86.15-.26.1-.5.24-.69.42-.2.18-.34.4-.45.64Zm1.07 1.18a.97.97 0 0 1 .2-1.07 1.07 1.07 0 0 1 .72-.28c.16 0 .3.03.43.08a.92.92 0 0 1 .52.51.97.97 0 0 1 0 .76.92.92 0 0 1-.52.51 1.1 1.1 0 0 1-.41.08.96.96 0 0 1-.93-.59Zm4.29.32c.16.1.36.2.59.27.22.08.47.12.72.12a.9.9 0 0 0 .4-.07c.1-.05.15-.13.15-.24a.2.2 0 0 0-.09-.17.87.87 0 0 0-.3-.12l-.66-.18c-.36-.1-.63-.23-.8-.4a.91.91 0 0 1-.27-.69 1.08 1.08 0 0 1 .43-.87c.14-.1.32-.2.53-.26a3.5 3.5 0 0 1 1.61 0 3.96 3.96 0 0 1 .67.22l-.33.9a2.9 2.9 0 0 0-1.25-.3.68.68 0 0 0-.35.07c-.07.04-.11.1-.11.19 0 .06.02.11.07.15.05.04.13.07.24.1l.73.2c.39.1.67.25.84.43.17.18.26.4.26.66 0 .2-.04.37-.13.52-.08.16-.2.3-.36.41-.15.11-.34.2-.56.27a3.66 3.66 0 0 1-2.04-.13l-.27-.12.28-.96ZM36 40h-1v-4h1v4Zm-21-4h2.11c.23 0 .44.03.63.08.19.06.35.14.49.25.14.11.24.25.32.42.07.17.11.37.11.6 0 .27-.08.52-.24.72-.17.2-.38.35-.65.44l1.13 1.25V40h-1.22l-1.18-1.4H16V40h-1v-4Zm1 1v.8h1c.14 0 .25-.05.33-.12a.4.4 0 0 0 .12-.3.4.4 0 0 0-.12-.28c-.08-.08-.19-.1-.33-.1h-1Zm4 3v-4h3.4v1H21v.51h2v.93h-2V39h2.4v1H20Zm8.92.97.33-.08-.11-.87-.26.04-.3.02a.84.84 0 0 1-.42-.1 2.44 2.44 0 0 1-.35-.23 1.9 1.9 0 0 0 1.04-1.73 1.97 1.97 0 0 0-1.3-1.87c-.26-.1-.55-.15-.86-.15-.3 0-.59.05-.85.15-.26.1-.48.24-.67.42a1.92 1.92 0 0 0-.62 1.45 1.95 1.95 0 0 0 1.27 1.85c.26.1.54.15.84.15.08.05.18.13.29.24a2.65 2.65 0 0 0 .9.62c.18.08.4.12.63.12.16 0 .3-.01.44-.03Zm-3.14-2.57a1 1 0 0 1 .2-1.07c.1-.1.2-.17.32-.22.12-.04.25-.07.4-.07.14 0 .28.03.4.08a.94.94 0 0 1 .52.51 1.04 1.04 0 0 1-.2 1.08.94.94 0 0 1-.32.2c-.12.05-.26.08-.4.08-.15 0-.28-.03-.4-.08a.95.95 0 0 1-.52-.51Zm5.22-.24c0 .51.47.84 1 .84.54 0 1-.34 1-.85V36h1v2.23a1.74 1.74 0 0 1-.52 1.24c-.17.16-.38.3-.63.39-.25.1-.53.14-.86.14-.32 0-.6-.04-.85-.13a1.81 1.81 0 0 1-.63-.37c-.17-.16-.3-.34-.38-.56a1.89 1.89 0 0 1-.13-.7V36h1v2.16ZM37 36h2.15c.2 0 .4.03.6.1a1.33 1.33 0 0 1 .83.74c.08.18.12.4.12.66 0 .23-.04.44-.13.62a1.37 1.37 0 0 1-.83.76c-.19.06-.38.12-.6.12H38v1h-1v-4Zm1 1v1h.96c.15 0 .27-.05.37-.14.1-.1.15-.22.15-.37a.5.5 0 0 0-.15-.37c-.1-.1-.22-.12-.37-.12H38Zm-25.05-1h-1.39L10 40h1.16c.15-.37.66-.64 1.2-.72.27-.04.56-.08.7.11l.25.61h1.2l-1.56-4Zm-.18 2.5h-1.04l.53-1.39.51 1.38Zm29.8-2.5h1.38l1.55 4h-1.19l-.25-.6c-.14-.2-.43-.16-.7-.12-.54.08-1.05.35-1.2.72H41l1.56-4Zm.16 2.5h1.04l-.51-1.39-.53 1.38Z" fill="#fff"/></svg>