<!-- by TradingView --><svg width="56" height="56" viewBox="0 0 56 56" xmlns="http://www.w3.org/2000/svg"><path fill="#F0F3FA" d="M0 0h56v56H0z"/><path d="M27.95 28.41c.36.34.75.7 1.15 1.05 5.85 5.19 15.9 7.53 15.9 7.53V15L27.95 28.41Z" fill="#919B9B"/><path d="M34.78 36.98H7l15.41-15.33v2.64c.1 2.4.89 4.74 2.27 6.71 2.2 3.32 5.83 6 10.1 6" fill="#55565A"/><path d="M45 36.98s-10.05-2.33-15.9-7.53c-.4-.36-.8-.7-1.15-1.04-4.73-4.46-5.54-6.76-5.54-6.77v2.65c.1 2.4.89 4.74 2.27 6.71 2.2 3.32 5.83 6 10.1 6L45 36.98Z" fill="#CE6854"/></svg>