<!-- by TradingView --><svg width="56" height="56" viewBox="0 0 56 56" xmlns="http://www.w3.org/2000/svg"><path fill="#002A8D" d="M0 0h56v56H0z"/><path fill-rule="evenodd" d="m15.83 23.4-2.08 7.43c-.2 1.06-.03 3.17 2.2 3.17H19c1.16.01 3.5-.68 3.5-3.53 0-.76-.3-2.37-1.64-2.8.73-.23 2.2-1.15 2.2-2.93 0-1.79-1.7-2.74-2.54-2.74H17.4c-.74 0-1.39.58-1.57 1.4Zm2.2.84-.5 1.83c-.06.21.09.43.29.43H19c.32 0 1.52-.57 1.52-1.54 0-.78-.7-.96-1.04-.96h-1.16c-.14 0-.25.1-.3.24Zm-1.14 4.6-.66 2.55c-.07.3.12.61.38.61h1.55c.43 0 2.02-.8 2.02-2.16 0-1.09-.92-1.35-1.38-1.34h-1.53c-.18 0-.33.14-.38.33ZM30.33 22c-4.9 0-6.26 4.6-6.33 6.89 0 2.83 1.39 5.11 4.87 5.11 2.79 0 3.1-1.8 2.9-2.7h-.36c-.57.64-1.44.76-1.8.74-.97 0-2.9-.65-2.9-3.15 0-3.13 2.6-4.7 4.18-4.7 1.25 0 2.02.73 2.24 1.1.48-.88.57-2.05-.2-2.58a4.9 4.9 0 0 0-2.6-.71Zm5.04.82-2.53 10.56a.5.5 0 0 0 .49.62h.98a1 1 0 0 0 .97-.75L36.1 30h2.14C39.8 30 43 28.1 43 25.16c0-2.34-1.72-3.08-2.58-3.16h-4.1c-.45 0-.84.34-.95.82Zm2.05 1.56-.72 3c-.07.32.17.62.5.6 2.3-.1 3.45-.83 3.45-2.3 0-1.28-.84-1.65-1.27-1.68H37.9a.5.5 0 0 0-.48.38Z" fill="#fff"/><path d="M9.57 23c-.86 0-1.83 1.52-2.2 2.28.72.3 2.35 1.21 3.06 2.37C9.36 29.37 7.03 30.8 6 31.3c.02.57.43 1.7 1.9 1.7 1.85 0 6.1-3.53 6.1-5.35C14 25.82 10.64 23 9.57 23Z" fill="#fff"/><path d="M10.36 27.53a8.25 8.25 0 0 0-.03-4.28c1.4.73 3.67 2.9 3.67 4.4C14 29.47 9.75 33 7.9 33A1.77 1.77 0 0 1 6 31.3c1.03-.5 3.36-1.93 4.43-3.65a3.38 3.38 0 0 0-.07-.12Z" fill="#FF7800"/><path d="M46.57 23c-.86 0-1.83 1.52-2.2 2.28.72.3 2.35 1.21 3.06 2.37-1.07 1.72-3.4 3.15-4.43 3.65.02.57.43 1.7 1.9 1.7 1.85 0 6.1-3.53 6.1-5.35 0-1.83-3.36-4.65-4.43-4.65Z" fill="#fff"/><path d="M47.36 27.53a8.25 8.25 0 0 0-.03-4.28c1.4.73 3.67 2.9 3.67 4.4 0 1.82-4.25 5.35-6.1 5.35a1.77 1.77 0 0 1-1.9-1.7c1.03-.5 3.36-1.93 4.43-3.65a3.24 3.24 0 0 0-.07-.12Z" fill="#FF7800"/></svg>