<!-- by TradingView --><svg width="56" height="56" viewBox="0 0 56 56" xmlns="http://www.w3.org/2000/svg"><path fill="#F0F3FA" d="M0 0h56v56H0z"/><path fill-rule="evenodd" d="M44 28a16 16 0 1 1-32 0 16 16 0 0 1 32 0Zm1 0a17 17 0 1 1-34 0 17 17 0 0 1 34 0ZM27 13c-7.82.52-14 7.04-14 15s6.18 14.48 14 15v-4.32c-7.7-1.52-9.67-7.27-9.67-10.13.08-4.38 1.8-7.16 3.99-8.83A10.6 10.6 0 0 1 27 17.6V13Zm5.13 29.45c1.8-.5 3.45-1.35 4.9-2.45H35a18.5 18.5 0 0 1-2.87 2.45Zm6.4-3.74a15.06 15.06 0 0 0 3.11-4.43H38.6a16.5 16.5 0 0 1-2.46 4.43h2.39ZM42.16 33c.51-1.46.8-3.03.84-4.66h-3.35v.1c-.04 1.6-.25 3.22-.62 4.56h3.13Zm.81-6c-.1-1.64-.47-3.2-1.06-4.66h-3.06c.4 1.4.72 2.97.8 4.66h3.32Zm-1.69-6c-.79-1.5-1.82-2.85-3.05-4H36.1c.91 1.2 1.67 2.36 2.3 4h2.88Zm-4.7-5.34a14.95 14.95 0 0 0-3.66-1.86A16.7 16.7 0 0 1 35 15.66h1.58Zm.6 18.62a15.4 15.4 0 0 1-2.76 4.43h-2.14a20.1 20.1 0 0 0 1.95-4.43h2.96ZM33.13 40h-1.7a15.08 15.08 0 0 1-2.57 2.81c1.3-.57 2.82-1.51 4.27-2.81Zm-1.37-7h1.15c.18-.19.34-.38.47-.59.1-.48.2-.98.26-1.5-.42.27-.98.45-1.27.53-2.33.72-3.18 2.1-3.32 2.7.86.12 1.58.05 2.19-.12a.65.65 0 0 1-.14-.4c0-.36.3-.62.66-.62Zm.81 2.1c-.53 1.4-1.17 2.6-1.84 3.6h-2.34v-1.13l-.55-.09c-7.4-1.22-9.18-6.52-9.18-8.92.07-3.99 1.62-6.38 3.47-7.8a9.42 9.42 0 0 1 5.6-1.87l.66.01V17h2.51l.12.19a18.13 18.13 0 0 1 1.8 3.81h-1.12a.63.63 0 0 0-.34.1 4.64 4.64 0 0 0-3.24-1.36H28c-2.8.13-3.93 1.99-4.14 2.91-5.5.89-4.41 6.17-2.75 7.57a4.8 4.8 0 0 0 1.66 4.37c1.72 1.5 4.2.66 5.28.03.93.54 2.88 1.24 4.51.48Zm.64-12.76h-1.05l.1.31c.4.07.76.15 1.1.26l-.15-.57ZM34.6 32.9c.46-.99.5-1.95.42-2.52l.02-.22c.44-.4.83-1.05 1.07-1.83h2.21v.07a17.93 17.93 0 0 1-.68 4.59H34.6l.02-.09ZM36.35 27a3.87 3.87 0 0 0-1.5-3.32l-.29-1.34h2.9c.45 1.38.79 2.96.86 4.66h-1.97Zm-6.6 13h-1.37v1.48c.44-.4.9-.9 1.38-1.48ZM30 15.66h-1.62V13.9A13.69 13.69 0 0 1 30 15.66ZM34.2 21a19.87 19.87 0 0 0-1.77-4h1.97c1 1.15 1.87 2.31 2.58 4h-2.79Zm-2.59-5.34h1.5a13.25 13.25 0 0 0-3.29-2.22l.35.36c.47.52.97 1.15 1.44 1.86Zm-3.56 13.22c.68.94 1.54 3.13 0 5.04-1.53-1.91-.67-4.1 0-5.04Zm-.98 5.29c-3.65.47-4.87-2.17-5.02-3.55.36.48 1.28.8 1.7.89 2.32.7 3.18 2.07 3.32 2.66Z" fill="#004289"/></svg>