<!-- by TradingView --><svg width="56" height="56" viewBox="0 0 56 56" xmlns="http://www.w3.org/2000/svg"><path fill="#F0F3FA" d="M0 0h56v56H0z"/><path d="M23.59 31.94c-2.12 3.3-3.08 4.08-4.48 4.08-1.39-.05-3.55-2.7-3.55-2.7L13 30.06V19.2A6.21 6.21 0 0 1 19.2 13h17.6a6.21 6.21 0 0 1 6.2 6.2V24l-4.77-6.48c-2.07-3.2-3-2.97-3-2.97-1.05.03-3.66 4.6-3.66 4.6l-7.98 12.8Zm5.31-3.25c1.94-2.85 3.9-5.7 6.66-5.97C38.6 22.42 43 28 43 28v8.83A6.2 6.2 0 0 1 36.82 43H19.19a6.21 6.21 0 0 1-6.15-6.2v-4.12l4.48 7.04s.93 1.77 1.8 1.83c.87.06 1.6-.93 1.6-.93l7.36-11.03.62-.9Z" fill="#F36F22"/></svg>