<!-- by TradingView --><svg width="56" height="56" viewBox="0 0 56 56" xmlns="http://www.w3.org/2000/svg"><path fill="#F0F3FA" d="M0 0h56v56H0z"/><path d="M45 15v23.53H11V15c1.19 0 2.34.4 3.27 1.15l.58.47a7.36 7.36 0 0 0 9.01.16l.94-.7a5.46 5.46 0 0 1 6.65.1l.7.55a6.82 6.82 0 0 0 8.62-.13l.12-.1A6.37 6.37 0 0 1 45 15Z" fill="#89BE40"/><path d="M45 16v24H11V16c1.19 0 2.34.41 3.27 1.17l.58.48a7.25 7.25 0 0 0 9.01.17l.94-.72a5.39 5.39 0 0 1 6.65.1l.7.57a6.71 6.71 0 0 0 8.62-.14l.12-.1A6.3 6.3 0 0 1 45 16Z" fill="#096CB1"/><path d="M25.73 16.53c-.33.16-.64.35-.93.57l-.94.72a7.25 7.25 0 0 1-9-.17l-.59-.48A5.15 5.15 0 0 0 11 16v24h26.29L25.73 16.53Z" fill="#0054A6"/><path d="M21.14 24.35c-1.08 0-2.29 1.13-3.02 2a.55.55 0 0 0 .2.85c.19.09.4.07.57-.05l.42-.38c.38-.35.78-.72 1.48-1 1.35.12 3 2.92 3.67 4.3l-5.18 5.7a.74.74 0 0 0-.05.94c.26.33.73.39 1.05.12l5.01-4.2c.59 1.2 2.86 3.37 7.3 3.37 5.55 0 8.41-3.25 8.41-5.92C41 27.4 37.44 24 32.6 24a9.26 9.26 0 0 0-7.3 3.54c-.84-1.07-2.84-3.2-4.16-3.2ZM39 30c0 2.76-2.91 5-6.5 5S26 32.76 26 30s2.91-5 6.5-5 6.5 2.24 6.5 5Zm-3 1a1 1 0 1 0 0-2 1 1 0 0 0 0 2Z" fill="#F0F3FA"/></svg>