<!-- by TradingView --><svg width="56" height="56" viewBox="0 0 56 56" xmlns="http://www.w3.org/2000/svg"><path fill="#390" d="M0 0h56v56H0z"/><path fill-rule="evenodd" d="M7 31v-2H5v-2h2v-3h4v2H9v1h2v2H9v2H7Zm9.2-1.39a2.5 2.5 0 1 1 .21-.61H12.81c.17.58.62 1 1.15 1 .32 0 .6-.15.82-.39h1.42ZM13.96 27c.53 0 .99.42 1.15 1h-2.3c.17-.58.62-1 1.15-1Zm11.54 4a2.5 2.5 0 0 0 2.24-1.39h-1.42c-.22.24-.5.39-.82.39-.53 0-.98-.42-1.15-1H27.95a2.51 2.51 0 0 0-2.45-3 2.5 2.5 0 0 0 0 5Zm1.15-3c-.16-.58-.62-1-1.15-1-.53 0-.98.42-1.15 1h2.3Zm7.87 3c1.22 0 2.24-.86 2.47-2h-1.33c-.17.58-.63 1-1.16 1-.68 0-1.23-.67-1.23-1.5s.55-1.5 1.23-1.5c.53 0 .99.42 1.16 1h1.33a2.52 2.52 0 0 0-2.47-2A2.51 2.51 0 0 0 32 28.5c0 1.38 1.13 2.5 2.52 2.5ZM40 31a2.5 2.5 0 1 0 0-5 2.5 2.5 0 0 0 0 5Zm0-1c.67 0 1.22-.67 1.22-1.5S40.67 27 40 27c-.68 0-1.22.67-1.22 1.5S39.32 30 40 30Zm-21.5 1v-2.95c.2-.25.6-.63 1-.63V26c-.34 0-.7.15-1 .5v-.48H17V31h1.5Zm3-2.95V31H20v-4.98h1.5v.47c.3-.34.66-.49 1-.49v1.42c-.4 0-.8.38-1 .63Zm23 2.95v-2.95c.2-.25.6-.63 1-.63V26c-.34 0-.7.15-1 .5v-.48H43V31h1.5Zm-15.1-.68L27.5 26h1.63l1.04 2.53.82-2.53h1.51l-2.33 6H28.6l.8-1.68ZM47.5 32H46v-6h1.5v.42c.36-.26.79-.42 1.25-.42 1.24 0 2.25 1.12 2.25 2.5S50 31 48.75 31c-.46 0-.9-.16-1.25-.42V32Zm1-2c-.55 0-1-.67-1-1.5s.45-1.5 1-1.5 1 .67 1 1.5-.45 1.5-1 1.5Z" fill="#fff"/></svg>