<!-- by TradingView --><svg width="56" height="56" viewBox="0 0 56 56" xmlns="http://www.w3.org/2000/svg"><path fill="url(#ajw15aviw)" d="M0 0h56v56H0z"/><path d="m28 11-13.98 8.06 3.2 1.75L28 14.34l12 6.74v12.18l3 1.55V19.16L28 11Zm0 5.46-8.55 5.55 2.76 1.5L28 19.83l7 4v6.68l3 1.6V21.8l-10-5.34Zm-15 4.26v3.6L38.96 38.5l2.99-2L13 20.72Zm0 9.26v-3.6l24.1 13.25-3 1.94L13 29.97Zm0 2.65v3.6L28.85 45l2.96-1.9L13 32.62Z" fill="#fff"/><defs><linearGradient id="ajw15aviw" x1="10.42" y1="9.71" x2="68.15" y2="76.02" gradientUnits="userSpaceOnUse"><stop stop-color="#1A1E21"/><stop offset="1" stop-color="#06060A"/></linearGradient></defs></svg>