<!-- by TradingView --><svg width="56" height="56" viewBox="0 0 56 56" xmlns="http://www.w3.org/2000/svg"><path fill="#F0F3FA" d="M0 0h56v56H0z"/><path d="M39 26.77v-9.73h-2v9.16c.37.05 2 .57 2 .57ZM22 26.24v-1.92l-2 .47V17h-2v10.47c.5-.2 2.34-.86 4-1.23ZM14 26.6c-.29.2-.6.21-1 .21-1.56 0-2-1.8-2-3.81 0-1.7.12-4 1.92-4 1.06 0 .98 1.01 1.08 2l3-.2c.03-3.01-1.83-3.8-3.88-3.8-2.17 0-5.04 1.58-5.12 5.8-.09 4.8 2.64 6.69 5 6.65a6.1 6.1 0 0 0 4-1.74v-5.74l-4 .5v2.34l1-.36v2.15ZM25.5 17c-2.23.01-3.51 1.69-3.5 4.63.01 2.55 1.45 4.17 3.5 4.18 2.12.01 3.5-1.66 3.5-4.44 0-2.77-1.64-4.38-3.5-4.37Zm.02 7c-1.04.1-1.52-1.33-1.52-2.55 0-1.3.47-2.44 1.5-2.45 1.04-.01 1.5 1.23 1.5 2.49 0 1.19-.44 2.45-1.48 2.51ZM34.73 22.44c1.23-.35 1.3-2 1.29-2.62-.03-2.24-1.75-2.79-2.9-2.79H30v8.5l2 .07V23h1l1.02 2.74c.59.02 2.48.38 2.48.38-.24-.6-1.77-3.68-1.77-3.68ZM32 21.26v-2.18c1.05-.05 1.73.27 1.71 1.08-.02.91-.68 1.15-1.71 1.1ZM45.22 17h-3.17L40 26.86l1.8.53.52-2.6 1.98.88.62 2.87C46.08 28.99 48 30 48 30c-.23-1.3-2.78-13-2.78-13Zm-2.52 5.98.53-2.47.56 2.97-1.09-.5Z" fill="#261B5D"/><path d="M21.83 30.26c-.06-.06-.65-.94.4-.89.07-.2.23-.58.35-.58.12 0 .1-.1.07-.16l.58.33c.01-.08.06-.22.17-.17.14.07.38.07.46.12.09.05.07-.17.1-.28.03-.1-.2-.07.16-.45.28-.3.65-.23.8-.15 0-.1.05-.28.13-.26.07.03.35.01.48 0-.06-.1-.12-.3.12-.27.24.03.45-.32.53-.5.1.14.3.46.35.56.06.12.04-.6.3-.46.22.12.28.35.29.46.12-.14.38-.41.42-.35.06.07.23-.18.3.08.08.27.48.43.45.27-.03-.16-.15-.46-.07-.46.07 0 .51.42.62.75v.01c.12.33.24.68.28.73.03.04.08-.73.3-.91a.72.72 0 0 1 .4-.18l-.07.53.51-.4.08.22h.21c.04 0 .14.17.18.26.1-.07.33-.2.37-.2.04 0 .7-.21.77-.14.06.08-.21.41.4.34.6-.08.7.22.64.37-.07.15-.24.48-.1.48.14 0 .2-.1.39-.17.18-.06.36-.02.3.12-.05.14.02.23.16.3.14.06.12.27.12.47 0 .2-.27.42-.27.48 0 .05.48-.1.68-.1.2-.02.28.38.31.45.03.08-.3.18-.3.3 0 .13.48-.27.55 0 .08.28-.1.42-.09.49.02.06.04.19.1.2.04.02.41-.03.6-.06l-.26.43.37.08-.43.42c.04.13.16.37.31.2.16-.16.15.11.12.27l.49-.47-.34.63c-.01.05.02-.07.27-.11.25-.05.65-.43.36-.05-.3.38-.02.38.07.38.1 0 .42-.24.25 0a8.9 8.9 0 0 1-.55.65c.37.05 1.04.22.83.42-.28.26.02.55-.2.82-.23.26-.73.05-.4.27.32.22.6.18.34.36-.25.19.99.1.06.64 0 .07.06.24.2.42.17.21.06.27-.12.36-.19.09-.28.28-.08.38.2.1.41.24.08.25-.34 0-.43 0-.31.14.11.13.47.52.39.62-.08.1-.1-.35-.79-.13.18.04.53.17.47.29a.3.3 0 0 1-.24.15c.1.05.3.16.17.18-.14.02-.46-.03-.6-.06.19.13.54.4.43.47-.12.06-.44-.05-.59-.11.08.07.24.24.24.37 0 .15.07.4-.08.43l-.35.05c.18.1.44.31 0 .42.17.05.28.16-.63.15-.02 0-.08.1-.1.37-.03.28-.23.12-.33 0 .1.19.12.48-.47.19.14.14.38.43.25.43h-.25c.08.2.22.59.09.54a4.6 4.6 0 0 0-.42-.14c.12.22.34.64.19.6a8.28 8.28 0 0 1-1-.54c.15.33.44 1 .37 1.1-.06.11-.27-.09-.37-.2l-.51-.57c.03.12.12.41.25.61.15.26.35.52.17.42a3.7 3.7 0 0 1-.42-.32c.03.18.08.52 0 .45a2.13 2.13 0 0 1-.21-.19c.07.08.17.23.04.2-.13-.04-.43-.42-.56-.6.07.17.2.54.23.66s-.1.09-.17.06c-.01.1-.06.26-.15 0-.1-.26-.2-.37-.24-.4.06.18.15.53.05.53-.1 0-.3-.3-.38-.45-.02.17-.07.5-.14.51-.09.02-.22-.18-.25-.25s-.11.02-.12.13c0 .12.09.33 0 .36a1.2 1.2 0 0 1-.35 0l-.22-.24-.17.55c-.03 0-.1-.06-.12-.21-.02-.19-.11.12-.18.17-.07.04-.05-.05-.14-.05-.09 0-.36.49-.5.45-.14-.04-.04-.6-.15-.5-.1.1-.12.31-.27.34-.15.03-.38.16-.41 0-.04-.15-.03-.25-.14-.15-.12.1-.43.46-.5.3-.07-.15 0-.32-.12-.2-.14.13-.2.41-.26.2-.06-.2 0-.68 0-.72a10 10 0 0 0-.52.73l-.06-.4c-.12.05-.35.18-.37.24 0 .06-.06-.52-.05-.7-.08.13-.41.45-.6.61l.06-.29-.21.04.28-.4-.32.17.1-.37-.33.13v-.73c-.04.2-.16.6-.3.6-.14 0-.4-.04-.51-.06l.03-.26c-.04-.07-.19-.2-.44-.15-.25.06-.44.13-.5.15l.32-.47-.21.07c-.09.04-.04-.15 0-.25l-.38.45a.33.33 0 0 0-.25-.12c-.16 0 .35-.6.14-.53-.18.07-.33.28-.39.38l.62-1.25-.79.43c-.06.04-.09-.14-.04-.22.04-.07.3-.36.04-.32-.26.03-.3.16-.4.1-.11-.04-.2-.13-.08-.22.09-.06.43-.36.59-.5-.2.06-.65.18-.85.14-.24-.04.77-.83.39-.93-.3-.07-.65-.03-.78 0-.07-.03-.2-.13-.17-.26.06-.15-.11-.02-.14-.15-.03-.1.25-.4.4-.55a1.23 1.23 0 0 0-.57.06c-.21.1-.22.06-.16-.06l.22-.4c-.13.04-.4.12-.51.19-.14.08.06-.09.08-.19.02-.1-.13.04-.22 0-.1-.03-.14-.19-.13-.23 0-.03.56-.41.56-.49 0-.07-.15-.2-.3-.16-.13.04-.1.24-.26 0-.15-.24-.25-.23-.38-.22-.13.02-.43-.07-.22-.11.22-.05.45-.06.39-.09-.07-.02-.44-.01-.53-.14-.08-.14.03-.17.14-.18.1 0 .15-.1.17-.16-.07 0-.21-.04-.25-.16-.06-.14-.08-.31.08-.36.17-.04.28-.13.1-.22-.18-.1-.48-.11-.29-.25.2-.13.52-.21.49-.27-.03-.06-.45-.05-.2-.16.25-.12.54.01.37-.25-.17-.26-.47-.17-.42-.25.05-.07.38.03.25-.1s-.38-.15-.38-.3c0-.16.01-.26.13-.28.12-.01.34-.04.17-.07-.17-.03-.09-.08.08-.15.17-.07-.05-.25.17-.33.22-.07.64 0 .6-.08a.86.86 0 0 0-.26-.36c-.14-.1-.12-.41 0-.41.1 0 .36.04.48.06-.16-.18-.45-.52-.28-.45.22.1.41.39.55.39.14 0-.32-.57-.4-.66-.03-.02-.03-.03 0 0 .04.04.2.18.31.17.16-.02.11-.27-.1-.43-.22-.15-.4-.25-.22-.27.18-.02.43 0 .28-.07a1.25 1.25 0 0 1-.28-.21c.1.02.3.04.41-.06.13-.14-.42-.83-.27-.85.12-.02.4 0 .52 0a1.5 1.5 0 0 1-.29-.23c-.15-.15-.02-.04.04-.17s.04-.3.25-.27c.17.02.58.13.77.18Z" fill="#E8292E"/><path d="M21.58 35.01c-.5.14-.95-.25-1.1-.46-.08-.02-.2.06-.16.52.06.57.34.23 1.02.34.69.1.38.04.58.52.2.48-.19.1-.58.44-.39.32-.14.37-.06.5.08.15.22.2.64.32.42.12.14-.31 0-.67-.13-.35 1.52-.2 2.42-.12.91.08.45-.02.37-.36-.08-.34-.23.04-.6-.06s-1.14.36-.67.06c.46-.3-.45-.28-.54-.35-.08-.07.44-.29.46-.68.02-.38-.23 0-.62-.06-.38-.07.05-.4-.04-.68-.1-.28-.37.22-.44.34-.06.13-.06.23-.68.4Z" fill="#7E1309"/><path d="M25.04 32.15c-.5-.52-.06-.6-.37-.88-.08-.05-.26-.13-.38 0-.16.15-.1.88.07 1.37.18.5.31.18.68.44.36.25.38.25.94.2.56-.04-.04-.16-.24-.34-.2-.18-.2-.26-.7-.79ZM28.57 30.77c-.2.69-.47.33-.64.49-.02-.1-.04-.38.08-.7.15-.4-.08-.41-.08-.81 0-.4.33-.49.75-.36.42.14.47.17.82.16.34-.01.72-.61.87-.8.14-.19-.33.69-.5 1.08-.17.38-.12.32-.3.46-.17.15-.17.48-.26.58-.09.1-.32-.3-.39-.72-.06-.42-.15-.07-.35.62Z" fill="#951F1F"/><path d="M23.7 37.74c.44-.36.46-.96.3-1.31.1 0 .34.08.52.44.24.44-.02.59-.29 1.07-.27.48-.31.16-.54.35-.22.18-.44-.19 0-.55ZM26.07 38.77c.2-.36-.72-.36-.94-.4.05.07.18.28.25.64.08.46-.25.12-.58.14-.32.02.37.4.72.36.35-.04.36-.39.55-.74ZM27.9 41.24c.2.33-.19.18-.47.23a1.3 1.3 0 0 1-.56-.57c-.24-.44-.1-.45.1-.52s.23-.67 0-1.29c-.22-.61.31.1.53.28.21.17.1.69-.07 1.23s.27.3.46.64Z" fill="#7E1309"/><path d="M28.6 40.24c-.07-.16-.45-.03-.57.04.05.26.15.9.12 1.47-.02.71.09.32.46.51.36.2.09-.19.08-.5-.01-.32-.18-.66-.24-1-.05-.33.23-.37.16-.52Z" fill="#640B07"/><path d="M34.3 37.03c-.34-.11-.36-.33-.3-.65.18-.24.59-.76.74-.9.2-.17.95 0 1.34-.13.4-.14-.48-.3-.65-.5-.16-.2-.91-.42-1.23-.06-.31.37-.03.82-.1.7-.07-.13-.65.31-.74.6-.1.3.07.67.27 1.14.2.47.22.3.43.5.22.2.28.52.53.85.25.33 1.05.46 1.1.35.04-.11.39-.82.2-1.02-.17-.2-.7 0-1.19-.26-.47-.26-.06-.51-.4-.62Z" fill="#7E1309"/><path d="M32.37 31.17c-.05-.22-.23.4-.35.7-.16.04-.53.14-.78.3-.31.18-.16.2 0 .32.16.1.38.1 1.13.1.35.25 1.05.94 1.05.75 0-.19-.1-.23-.1-.65 0-.42.22-1.52-.09-1.82-.3-.3-.13.38-.32.7-.19.33-.49-.18-.54-.4Z" fill="#B32821"/><path d="M31.55 36.08c.2-.4 1.5-1.25 1.57-1.25 0 .11-.03.39-.14.58-.15.25-.29.22-.77.67-.49.45-.1.12.24.51.35.4.5.41.85.6s.1 1 0 .74c-.1-.25-.18-.16-.51-.48-.34-.33-.3-.11-.69-.26-.39-.15-.75-.7-.55-1.11Z" fill="#951F1F"/><path d="M30.58 40.32c.37-.15-.27-1.05-.38-1.4.13 0 .45.03.73.24.35.26.38.41 0 .89-.38.48.03.07.55.48.53.4-.06.9-.17.92-.12.03-.34 0-.77-.17-.43-.18-.34-.28-.68-1.12-.34-.84.34.3.72.16Z" fill="#7E1309"/><path d="M24.64 35.8c-.12-.41.06-.97.16-1.2.51-.48 1.5-1.48 1.38-1.6-.16-.13 0-.85.33-1.02.33-.18 1.28 0 1.63 0 .28 0 .5-.16.59-.24l.05.24c0-.02.05-.07.2-.15.2-.11.83-.04 1.34.15.42.15 1.02.06 1.27 0 0 .06-.07.23-.38.46-.4.28-1.7-.04-1.62.17.08.2.09.36.48.62.39.27.2.98.3 1.23a9.8 9.8 0 0 0 1.51 1.76c.34.23.24.07.27.52.02.44-.2.55-.32.77-.12.23-.43.6-.76.68-.32.09-1.96-.12-2.68 0-.73.13-.76 1.35-.78 1.46-.01.11-.19-.12-.4-.28-.22-.17-.4-.33-.66-.9a2.33 2.33 0 0 0-1.07-1.04c-.22-.08-.3-.27-.27-.7.02-.42-.4-.42-.57-.93Z" fill="#FBF9FA"/><path d="M26.61 36.9c.2.42.14.75.08.86-.26-.47-.7-.66-.79-1.04-.08-.38-.27-.73-.25-1.14.02-.32.2-.46.27-.5v-.75c0-.4.04-.5.25-.76.16-.22.12-.43.08-.51.59-.04.74-.22.78-.39.02-.12.25-.17.41-.2h.07-.07a.43.43 0 0 0-.21.13c-.14.14-.13.46.2.46.32 0 .35-.22.62-.22.21 0 .34.08.38.11-.14.03-.43.12-.48.3-.05.22.03.5.35.51.32.02.35-.11.57-.1.18.01.38.35.45.52-.01.15-.02.5.07.7.12.23 1.17 1.6 1.24 1.65.08.05.27.2.23.27-.04.07-.17.06-.19.08l-.54.5c-.16.15-.25-.08-.36 0-.08.06.15.23.25.3l.04.01c.02.02 0 .01-.04-.01-.1-.03-.32.07-.56.01-.27-.06-.35-.5-.5-.6-.14-.08-.6.2-.8.18-.19-.02-.9-.53-1.1-.67-.21-.15-.16-.79-.55-.96-.38-.17-.16.74.1 1.26Z" fill="#24151A"/><path d="M26.5 34.13c0-.54.3-.79.44-.85-.06.09-.19.38-.19.85 0 .48.21.81.32.92a.99.99 0 0 1-.58-.92ZM27.76 34.14c0-.4-.3-.6-.45-.64.07.07.2.28.2.64s-.22.6-.33.68c.2-.05.58-.27.58-.68ZM28.32 34.41c-.3.04-.43.28-.47.27.2-.5.58-.44.82-.42.25.02.25.27.25.3 0 .04-.07.02-.08 0a.7.7 0 0 0-.52-.15Z" fill="#A7989D"/><path d="M28.44 34.92c.21 0 .23-.3.21-.45.01-.01.05-.03.11.02.06.04.08.2.09.26.13-.09.15.05.13.12-.02.07-.07.22-.16.16-.1-.05-.06 0-.38 0a.7.7 0 0 1-.5-.23c.08.04.3.12.5.12Z" fill="#74686C"/><circle cx="28.51" cy="34.58" fill="#504448" r=".1"/><path d="M32.05 36.33c.04.02.07.04.08.06.02.05 0 .12.02.35.01.31-.1.46-.2.6-.05.06-.09.11-.12.17-.12.23-.43.6-.76.68-.14.04-.54.02-1 0a9.37 9.37 0 0 0-1.68 0c-.45.08-.64.58-.71.98-.07-.03-.11-.1-.1-.25.04-.59-.2-1.77-.25-1.8.15.07.48.25.63.43.1.12.22.13.43.13.2.01.46.02.85.13.54.14.75.1 1 .03.12-.03.26-.06.47-.07.58-.02.92-.23.93-.45 0-.12-.06-.11-.15-.1a.45.45 0 0 1-.27-.01c-.21-.1 0-.17.28-.27.23-.08.47-.46.55-.61Z" fill="#816E6A"/><path d="M27.32 32.43c-.2 0-.22.18-.2.28.1-.23.45-.23.73-.24.27 0 .67-.18.95-.18.27 0 .78.18.97.26.15.06.33.02.4 0 0-.02-.07-.06-.26-.12-.24-.07-.93-.2-1.07-.24-.12-.04.1-.29.22-.4-.1.07-.33.25-.42.34-.12.12-.56.18-.72.26-.16.07-.35.05-.6.04Z" fill="#24151A"/></svg>