<!-- by TradingView --><svg width="56" height="56" viewBox="0 0 56 56" xmlns="http://www.w3.org/2000/svg"><path fill="#132F61" d="M0 0h56v56H0z"/><path d="M29.08 19.85a69.3 69.3 0 0 0 2.62 4.95c1.26 2.24 2.66 4.63 3.57 6.15a7.3 7.3 0 0 0 4.24 2.74c1.42.36 2.79.33 3.67.19l.36-2.07.08-.06a92.9 92.9 0 0 0 3.16-2.9 8.22 8.22 0 0 0 .48-.55l.24-.59a33.25 33.25 0 0 0 .4-1.2c-.57.73-1.3 1.52-2.15 2.14-1.62 1.19-3.17.92-3.79.6l-.03-.02-4.18-3.84 1.62-1.76h-2.91l-.09-.08c-.73-.71-1.3-1.32-1.8-1.84s-.89-.93-1.25-1.26a3.65 3.65 0 0 0-1.04-.68 3.25 3.25 0 0 0-1.26-.22c-.51 0-1.18.12-1.94.3Zm5.59 11.18c-.91-1.53-2.25-3.81-3.47-5.96a66.62 66.62 0 0 1-2.68-5.08c-.65.17-1.34.37-2.02.57l-1.27.36c-1.14.32-2.21.58-2.95.58a11.23 11.23 0 0 1-2.87-.42c-.68-.16-1.25-.3-1.77-.3-1.21 0-3.15.23-5.07 2.28-.75.8-1.25 2.12-1.57 3.5-.17.76-.29 1.53-.36 2.2A9.66 9.66 0 0 1 12 26.94l.4-.39.08.54c.03.19.31.76 1.4.76.34 0 .54-.05.68-.12.12-.06.21-.14.33-.24l.08-.07c.17-.13.37-.28.67-.39.3-.1.7-.17 1.25-.17a2.72 2.72 0 0 1 2.74 1.97c.98.57 2.58 1.38 4.34 2.07 1.84.7 3.81 1.26 5.42 1.26 1.63 0 2.9-.22 3.8-.49.72-.21 1.2-.46 1.48-.64Zm-15.58-2.05a2.16 2.16 0 0 0-2.2-1.57c-.5 0-.83.06-1.06.14a1.52 1.52 0 0 0-.56.35c-.12.1-.27.23-.46.32-.23.12-.52.19-.94.19-.94 0-1.49-.38-1.75-.77-.91 1.06-1.44 2.34-2.14 3.54.02-.87.15-3.33.47-4.74.33-1.4.86-2.85 1.7-3.75a7.14 7.14 0 0 1 5.49-2.46c.6 0 1.23.16 1.9.31l.24.06c.76.18 1.58.35 2.5.35.64 0 1.64-.23 2.8-.56l1.24-.36c.78-.22 1.57-.45 2.3-.64.9-.22 1.74-.39 2.4-.39.57 0 1.04.08 1.47.26.44.17.82.44 1.2.78.4.35.8.78 1.29 1.29.47.5 1.02 1.08 1.7 1.75h3.95l-2.1 2.28 3.73 3.42c.46.22 1.74.46 3.16-.58 1.49-1.09 2.67-2.81 3.06-3.54l.52-1.05c-.15.51-.4 2.56-.63 3.29l-.34 1c-.1.28-.2.52-.27.65-.05.1-.13.2-.22.3l-.36.38c-.27.28-.62.61-1 .97-.73.67-1.55 1.4-2.12 1.9l-.4 2.25-.19.03c-.94.19-2.48.25-4.1-.15a7.9 7.9 0 0 1-4.39-2.74 6.2 6.2 0 0 1-1.63.71c-.93.28-2.19.5-3.8.52l-2 3.28H23.6l2.11-2.93.46.32-1.48 2.06h2.53l1.67-2.75c-1.6-.1-3.45-.64-5.13-1.3a34.04 34.04 0 0 1-4.27-2c-.28.48-.8 1-1.45 1.47a8.43 8.43 0 0 1-2.82 1.35c-.7.18-1.3.78-1.74 1.5a7.48 7.48 0 0 0-.85 2.07l-.06.21H9l.3-.43 4.02-5.8.46.32-3.72 5.36h2.08c.16-.56.44-1.31.87-2 .47-.78 1.16-1.53 2.08-1.76.97-.25 1.9-.73 2.63-1.26a4.47 4.47 0 0 0 1.37-1.45Zm.27 3.5 1.12-1.2-.42-.37-1.39 1.49 1.7 3.05H18.1l-1.2-2.34-.5.25L17.76 36h3.54l-1.95-3.52Zm15.56.46L36.86 36h-3.61l-.66-2.07.53-.16.54 1.68h2.19l-1.4-2.22.47-.29Z" fill="#F8280C"/></svg>