<!-- by TradingView --><svg width="56" height="56" viewBox="0 0 56 56" xmlns="http://www.w3.org/2000/svg"><path fill="#F0F3FA" d="M0 0h56v56H0z"/><circle cx="17.5" cy="17.5" r="2.5" fill="#B9BAC0"/><circle cx="17.5" cy="38.5" r="2.5" fill="#B9BAC0"/><circle cx="38.5" cy="17.5" r="2.5" fill="#B9BAC0"/><circle cx="38.5" cy="38.5" r="2.5" fill="#B9BAC0"/><circle cx="20" cy="28" r="2.5" fill="#0054A2"/><circle cx="36" cy="28" r="2.5" fill="#0054A2"/><circle cx="28" cy="20" r="2.5" fill="#0054A2"/><circle cx="28" cy="36" r="2.5" fill="#0054A2"/><path d="M24 11a2.5 2.5 0 0 1 1.15 4.72c-.9 1.01-2 2.75-2 4.75 0 3.16 3.37 4.53 4.85 4.53 1.48 0 4.77-1.9 4.77-4.53 0-1.87-1.4-3.93-2.33-5.02a2.5 2.5 0 1 1 3.09.03c-.33 1.2-.2 2.95 1.25 4.8 1.83 2.3 4.83 2.15 6.7 1.68a2.45 2.45 0 1 1-1.2 3.11c-1.42-.99-3.22-1.96-4.68-1.96-2.8 0-4.6 2.79-4.6 4.89 0 2.1 2.1 4.5 5.12 4.5 2.04 0 3.35-1.02 4.36-1.96a2.45 2.45 0 1 1 .44 3.12c-2.36-.64-5.87-.22-6.9 2.13-.68 1.52-.57 3.46-.28 4.91A2.5 2.5 0 0 1 32 45a2.5 2.5 0 0 1-1.38-4.58c.93-1.08 2.15-2.91 2.15-4.63 0-2.6-2.23-4.79-4.77-4.79-2.54 0-5 2.37-4.85 4.79.1 1.59 1.25 3.44 2.13 4.56a2.5 2.5 0 1 1-2.96.3c.2-1.29.15-3.05-.73-4.86-1.12-2.33-4.2-2.4-6.33-2.02A2.5 2.5 0 0 1 11 32a2.5 2.5 0 0 1 4.63-1.3c1.23.87 2.95 1.8 4.66 1.8C23.12 32.5 25 30.2 25 28s-1.9-4.9-4.7-4.9c-1.92 0-3.58 1.24-4.74 2.31a2.5 2.5 0 1 1-.42-3.3c1.4.2 3.39.12 5.15-1.08 2-1.34 2.25-3.9 2.06-5.65A2.5 2.5 0 0 1 24 11Z" fill="#636265"/></svg>