<!-- by TradingView --><svg width="56" height="56" viewBox="0 0 56 56" xmlns="http://www.w3.org/2000/svg"><path fill="#F0F3FA" d="M0 0h56v56H0z"/><path fill-rule="evenodd" d="M13 37V19h-3v18h3Zm4 0V19h6.7c3.56 0 6.3 2.33 6.3 6 0 3.7-2.77 6-6.34 6H20v6h-3Zm6.22-9H20v-6h3.2c2 0 3.8.91 3.8 3 0 2.08-1.77 3-3.78 3ZM47 25h-3.1c-.35-2.02-1.88-3-3.9-3-3.36 0-5 3.07-5 6 0 2.95 1.46 6 4.84 6 1.97 0 3.69-1.01 4.05-3H47c-.5 3.63-3.62 6-7.2 6-5.04 0-7.8-4.34-7.8-9 0-4.65 2.77-9 7.8-9 3.7 0 6.71 2.28 7.2 6Z"/></svg>