<!-- by TradingView --><svg width="56" height="56" viewBox="0 0 56 56" xmlns="http://www.w3.org/2000/svg"><path fill="#F0F3FA" d="M0 0h56v56H0z"/><path d="M30.54 15.61C21.94 20.45 9.12 21.18 9 21.14c0 .95 2.48 1.44 8.82.86 6.33-.58 13.32-4.78 14.14-4.78.66 0 .82 1.45.82 2.18-.02 1.18.28 3.6 1.59 3.6 1.64 0 3.64-2.57 5.32-2.57 1.7 0 3.62 2.3 4.46 3.5.68.95 1.2.93 1.37.8-.24-3.13-3.42-7.07-4.43-7.07-1.01 0-1.95.71-3.9 1.74s-1.35.73-1.4-2.18c-.04-2.32-.22-3.25-.31-3.42-.8-.33-3.62 1.07-4.94 1.81Z" fill="#2B4585"/><path d="M36.33 13.41c.17.97.47 3.3.31 4.94-.03.1.04.24.57.1.67-.19 1.12-.33 1.12-.48 0-.14-.43-4.1-1.21-4.9-.1-.1-.4-.17-.8.34Zm8.71 6.75c.34.46 1.11 1.86 1.5 3.75a.7.7 0 0 0 .44-.84c-.13-.64-1.05-3.73-1.94-2.91Z" fill="#90BF3E"/><path d="M10.77 26H9.72L9 30h1.16l.25-2.28.96 2.28h.5l.97-2.28.35 2.28h1.05l-.66-4h-1l-.94 2.1-.87-2.1ZM18 26v4h1v-4h-1Zm5 4v-4h1.04L26 28.48V26h1v4h-1.07L24 27.54V30h-1Zm10-4v1h-2v.5h1.7v1H31v.5h2v1h-3v-4h3Zm4 4v-4h1.78c.72 0 1.22.58 1.22 1.3 0 .59-.35 1.09-.87 1.24L40.27 30h-1.24l-1.02-1.4H38V30h-1Zm1-3.25v1.16h.4c.33 0 .6-.26.6-.58a.59.59 0 0 0-.6-.58H38ZM42.5 30l1.67-4h1.2L47 30h-1.29l-.28-.75h-1.39l-.26.75H42.5Zm1.82-1.53h.82l-.42-1.12-.4 1.12Zm-32.46 2.87-.49.77c-.5-.48-1.1-.29-1.1 0 0 .24.43.42.64.48.36.11 1.09.5 1.09 1.1 0 .76-.67 1.31-1.54 1.31-.7 0-1.26-.31-1.46-.47l.48-.69c.18.14.6.4.87.4.34 0 .6-.06.6-.37 0-.3-.38-.43-.59-.5l-.11-.03c-.34-.08-1.14-.29-1.14-1 0-.83.75-1.34 1.5-1.34.59 0 1.08.23 1.25.34Zm1.81-.34L12 35h1.28l.26-.75h1.4l.27.75h1.29l-1.63-4h-1.2Zm.97 2.47h-.82l.4-1.12.42 1.12ZM17 31v4h1v-2.46L19.93 35H21v-4h-1v2.48L18.04 31H17Zm21 0v4h1v-4h-1Zm6.2 0-1.65 4h1.26l.26-.75h1.38l.28.75H47l-1.61-4h-1.2Zm.96 2.47h-.8l.39-1.12.41 1.12ZM25 35l1.67-4h1.2l1.63 4h-1.29l-.28-.75h-1.39l-.26.75H25Zm1.82-1.53h.82l-.42-1.12-.4 1.12Zm15.05-1.36.49-.77A2.45 2.45 0 0 0 41.1 31c-.75 0-1.5.51-1.5 1.33 0 .72.8.93 1.14 1.01l.1.03h.01c.21.07.6.2.6.5 0 .31-.27.37-.6.37-.27 0-.7-.26-.88-.4l-.48.7c.2.15.77.46 1.46.46.87 0 1.54-.55 1.54-1.3 0-.62-.73-1-1.1-1.11-.2-.06-.62-.24-.62-.48 0-.29.6-.48 1.1 0ZM25 31h-3v1h1v3h1v-3h1v-1Zm6 0v4h2v-1h-1v-3h-1Zm2.5 2.37V31h1v2.48c0 .38.36.68.74.68s.76-.3.76-.68V31h1v2.37c0 .9-.73 1.63-1.64 1.63h-.22c-.9 0-1.64-.73-1.64-1.63Z" fill="#6F6E6E"/><path fill="#90BF3E" d="M9 37h38v1H9z"/></svg>