<!-- by TradingView --><svg width="56" height="56" viewBox="0 0 56 56" xmlns="http://www.w3.org/2000/svg"><path fill="#F0F3FA" d="M0 0h56v56H0z"/><path d="m24.26 24.93.44-.2V21.6l-3.5-.65.72 3.97h2.34Zm-4.4-11.33 1.34 7.36-7.83-1.43-1.96 3.12 6.9.83V24L11 27.43v1.14l7.42 3.12v.73l-6.9.41 2.06 3.44 7.65-1.42-1.37 7.55 3.4 2.08.41-6.97h.72L27.5 45h1.13l3.4-7.38h.51l.83 6.96 3.09-1.97-1.39-7.7 7.36 1.36 2.06-3.44-6.9-.41v-.73L45 28.57v-1.14L37.68 24v-.52l6.9-.83-1.95-3.12-7.54 1.38 1.36-7.52-3.1-1.97-.82 6.96h-.51L28.62 11h-1.14l-3.09 7.49h-.72l-.4-6.97-3.4 2.08Zm11.66 11.23 7.1 3.33-6.95 3.01h2.72l.67 3.73-3.87-.71v-2.8l-3.3 7.16-3.19-7.48h-.61l.72.3v2.82l-3.58.66.7-3.78h2.16l-6.7-2.91 6.87-3.23h.44l3.2-7.48 3.4 7.38h.22Zm0 0h2.87l.7-3.92-3.8.7v3.12l.23.1Z" fill="#97A3B2"/><path d="m31.52 24.83-.22-.1V21.6l3.8-.7-.71 3.92h-2.87Zm-6.82-.1-.44.2h-2.34l-.72-3.97 3.5.65v3.12Zm-.61 6.34.72.3v2.82l-3.58.66.7-3.78h2.16Zm7.58.1-.47.2v2.82l3.86.71-.67-3.73h-2.72Z" fill="#59687C"/></svg>