<!-- by TradingView --><svg width="56" height="56" viewBox="0 0 56 56" xmlns="http://www.w3.org/2000/svg"><path fill="#0E3564" d="M0 0h56v56H0z"/><path fill-rule="evenodd" d="m37 17.5 2.96-2.5L43 17.5h-1.21l-1.83-1.45-1.7 1.45H37Zm3 2.5a1 1 0 1 0 0-2 1 1 0 0 0 0 2Zm0 1a2 2 0 1 0 0-4 2 2 0 0 0 0 4ZM28.36 40 4 28.45 28.36 18 52 28.45 28.36 40Zm0-1.11L6.43 28.49l21.93-9.4 21.27 9.4-21.27 10.4ZM23 32v-7h1.75l1.28 5.06 1.2-5.06H29v7h-1v-4.99L26.6 32h-1.18L24 27.01V32h-1Zm-4.14-4.84 1.08-.22A2.44 2.44 0 0 0 17.5 25c-2.05 0-2.2 1.41-2.2 1.77 0 .36.24 1.56 1.97 2.07.51.1 1.72.36 1.72 1.22 0 .83-.65.94-1.35.94-.74 0-1.33-.57-1.68-1.54l-.97.4c.16.71.92 2.14 2.65 2.14 2.17 0 2.35-1.44 2.35-1.94 0-.98-.37-1.5-2.17-2.06-.45-.12-1.5-.7-1.5-1.23 0-.28.46-.77 1.18-.77.89 0 1.24.75 1.35 1.16ZM21 32v-7h1v7h-1Zm14 0 2.4-7h1.18L41 32h-1.03l-.72-2h-2.53l-.7 2H35Zm2.05-3h1.86L38 26.3l-.95 2.7Z" fill="#fff"/><path d="m34.94 26.94-1.08.22c-.1-.4-.46-1.16-1.35-1.16-.72 0-1.18.49-1.18.77 0 .53 1.05 1.11 1.5 1.23 1.8.55 2.17 1.07 2.17 2.06 0 .5-.18 1.94-2.35 1.94-1.73 0-2.49-1.43-2.65-2.14l.97-.4c.35.97.94 1.54 1.68 1.54.7 0 1.35-.11 1.35-.94 0-.86-1.21-1.12-1.72-1.22-1.73-.5-1.97-1.7-1.97-2.07 0-.36.15-1.77 2.2-1.77 1.63 0 2.3 1.3 2.43 1.94Z" fill="#fff"/></svg>