<!-- by TradingView --><svg width="56" height="56" viewBox="0 0 56 56" xmlns="http://www.w3.org/2000/svg"><path fill="#F0F3FA" d="M0 0h56v56H0z"/><path fill-rule="evenodd" d="M5 22v11h4v-7.33c.33-.4.82-.65 1.38-.67 1.08-.04 1.62.79 1.62 1.82V33h4v-7.56c0-.51-.37-3.44-3.8-3.44a5.4 5.4 0 0 0-3.4 1.07A1.91 1.91 0 0 0 7.13 22H5Zm22.5 6h-6.71c.09.64.8 2.25 2.92 2.25s3.03-.62 3.29-.93v2.7c-1.06.64-3 .92-3.9.98-5.14 0-5.6-4.15-5.6-5 0-2.04.8-6 5.04-6a4.63 4.63 0 0 1 4.96 4.3V28ZM21 26v-.02c0-.82.67-1.48 1.5-1.48s1.5.66 1.5 1.48V26h-3Zm19.1-4h-4.33L34 24.36 32.23 22H27.9l3.92 5.26L27.5 33h4.4l2.1-2.82L36.1 33h4.4l-4.32-5.74L40.1 22Zm.9 1.12v2.41c.39-.3 1.58-.92 3.61-.92s2.88.83 3.06 1.39H45c-3.17 0-5 1.73-5 3.55 0 1.82 1.53 3.45 3.77 3.45 1.78 0 2.95-.86 3.38-1.29V33H51v-7.06c0-2.29-2.85-3.94-5.55-3.94-2.15 0-3.83.75-4.45 1.12Zm6.15 6.7V28.5h-2.43c-.47 0-1.42.19-1.42.95 0 .75.9 1.01 1.34 1.05 1.42 0 2.26-.45 2.51-.68Z" fill="#3B3B3B"/><path d="M9 28.01c-1.34 0-2.84.02-4 .01V33h4v-4.99Zm14.71 2.24A2.8 2.8 0 0 1 20.8 28h6.71-10c0 .85.46 5 5.6 5 .9-.06 2.84-.34 3.9-.98v-2.7c-.26.3-1.17.93-3.29.93Zm8.12-3L27.51 33h4.39L34 30.17l-2.18-2.92Zm19.17.77c-2.01 0-3.87 0-4-.02v5h4v-4.98Z" fill="#FF5000"/></svg>