<!-- by TradingView --><svg width="56" height="56" viewBox="0 0 56 56" xmlns="http://www.w3.org/2000/svg"><path fill="#F0F3FA" d="M0 0h56v56H0z"/><path d="M39.5 22a3 3 0 1 1-6 0 3 3 0 0 1 6 0Z" fill="#494941"/><circle cx="36.5" cy="22" r="1" fill="#D8A400"/><path fill-rule="evenodd" d="M4 26v6h1.24c.4 0 .76-.35.76-.79V30h1.04C8.12 30 9 29.33 9 28.15 9 26.96 8.12 26 7.04 26H4Zm2 2.5v-1h.6c.22 0 .4.22.4.5s-.18.5-.4.5H6Zm9.5.5a3 3 0 1 1-6 0 3 3 0 0 1 6 0Zm-2 0a1 1 0 1 1-2 0 1 1 0 0 1 2 0Zm23 3a3 3 0 1 0 0-6 3 3 0 0 0 0 6Zm0-2a1 1 0 1 0 0-2 1 1 0 0 0 0 2Zm-17.45 2H16v-6h3.05A2.97 2.97 0 0 1 22 29c0 1.66-1.32 3-2.95 3ZM19 30h-1v-2h1c.7 0 1 .45 1 1s-.3 1-1 1Zm3.5-4h5v1c0 .31-.23.5-.51.5H24.5v.8h2.69v.68c0 .38-.29.82-.64.82H24.5v.7h3v.95c0 .3-.23.55-.51.55H22.5v-6Zm7.5 6h-2v-6h3.04c1.08 0 1.96.96 1.96 2.15 0 .77-.37 1.32-.93 1.62L34 32h-2.15l-1.82-2H30v2Zm.6-4.5H30v1h.6c.22 0 .4-.22.4-.5s-.18-.5-.4-.5Zm14.28-.62-.87 1.13c-.51-.57-1.94-.94-2.16-.41-.14.35.37.44.92.54.22.04.46.09.66.15.37.11 1.57.6 1.57 1.72S43.92 32 42.38 32a4.84 4.84 0 0 1-2.88-1.22l1.18-1.15c.47.59 1.33.77 1.7.8.25 0 .76-.03.76-.3 0-.23-.3-.3-.73-.41-.21-.05-.46-.11-.72-.2-.81-.27-1.7-.7-1.7-1.7s.93-1.82 2.4-1.82c1.16 0 2.15.59 2.5.88ZM47 32h-2l2.77-6h1.6L52 32h-2l-.36-1h-2.21L47 32Zm1.64-3.83.47 1.33h-1.04l.57-1.33Z" fill="#D8A400"/></svg>