<!-- by TradingView --><svg width="56" height="56" viewBox="0 0 56 56" xmlns="http://www.w3.org/2000/svg"><path fill="#F0F3FA" d="M0 0h56v56H0z"/><path d="M42.85 26.15c-.13-.84-.34-1.65-.62-2.42l1.44-1.78-1.72-2.8-1.96.53c-.65-.84-1.4-1.6-2.23-2.26l.55-2.35-2.73-1.68-1.87 1.73a14.4 14.4 0 0 0-2.88-.74L30.17 12h-3.16l-.77 2.43c-.97.16-1.9.42-2.79.76l-1.83-1.9-2.76 1.63.48 2.71c-.64.54-1.23 1.14-1.76 1.78l-2.42-.66-1.62 2.88 1.62 2c-.26.71-.47 1.46-.6 2.23l-2.56.79V30l2.55.91c.13.77.34 1.5.6 2.23l-1.89 2.06 1.57 2.9 2.86-.58c.51.6 1.07 1.16 1.68 1.68l-.66 2.65 2.7 1.73 2.16-1.93c.8.3 1.64.54 2.5.7L26.8 45h3.16l.83-2.58c.8-.11 1.57-.3 2.32-.53l2.05 2.07 2.74-1.67-.5-2.63c.75-.57 1.44-1.2 2.06-1.9l2.35.68 1.65-2.86L42 33.7c.36-.88.64-1.8.81-2.77l2.2-.67v-3.35l-2.15-.77Z"/><path d="M41.85 26.15c-.13-.84-.34-1.65-.62-2.42l1.44-1.78-1.72-2.8-1.96.53c-.65-.84-1.4-1.6-2.23-2.26l.55-2.35-2.73-1.68-1.87 1.73a14.4 14.4 0 0 0-2.88-.74L29.17 12h-3.16l-.77 2.43c-.97.16-1.9.42-2.79.76l-1.83-1.9-2.76 1.63.48 2.71c-.64.54-1.23 1.14-1.76 1.78l-2.42-.66-1.62 2.88 1.62 2c-.26.71-.47 1.46-.6 2.23l-2.56.79V30l2.55.91c.13.77.34 1.5.6 2.23l-1.89 2.06 1.57 2.9 2.86-.58c.51.6 1.07 1.16 1.68 1.68l-.66 2.65 2.7 1.73 2.16-1.93c.8.3 1.64.54 2.5.7L25.8 45h3.16l.83-2.58c.8-.11 1.57-.3 2.32-.53l2.05 2.07 2.74-1.67-.5-2.63c.75-.57 1.44-1.2 2.06-1.9l2.35.68 1.65-2.86L41 33.7c.36-.88.64-1.8.81-2.77l2.2-.67v-3.35l-2.15-.77Z" fill="#85BB33"/><path d="m40.9 23.67 1.41-1.74-1.5-2.44-1.92.52-.12-.15a14.05 14.05 0 0 0-2.19-2.2l-.14-.12.54-2.33-2.37-1.45-1.84 1.7-.16-.06c-.9-.33-1.85-.58-2.82-.72l-.2-.03-.64-2.35h-2.73l-.76 2.4-.18.02c-.94.16-1.85.41-2.72.75l-.18.07-1.8-1.88-2.4 1.42.48 2.67-.14.11c-.62.53-1.2 1.12-1.72 1.74l-.12.15-2.38-.65-1.4 2.5 1.59 1.97-.06.16c-.26.7-.46 1.43-.6 2.19l-.03.18-2.5.77v2.91l2.5.9.03.18c.14.74.33 1.47.59 2.17l.06.18-1.86 2.04 1.36 2.52 2.81-.58.11.13c.5.6 1.06 1.14 1.66 1.64l.14.13-.66 2.62 2.35 1.5 2.12-1.9.16.06c.79.3 1.6.52 2.45.68l.18.03.72 2.62h2.73l.82-2.55.17-.02c.79-.12 1.55-.3 2.29-.53l.16-.05 2.01 2.04 2.37-1.45-.49-2.61.15-.11c.73-.56 1.4-1.18 2.02-1.87l.12-.13 2.3.67 1.44-2.48-1.45-1.85.06-.17c.36-.86.62-1.76.8-2.7l.03-.18 2.16-.67v-2.9l-2.12-.77-.02-.18c-.14-.81-.34-1.6-.6-2.36l-.07-.16Zm3.1 3.25v3.35l-2.2.67c-.17.96-.45 1.89-.8 2.77l1.46 1.87-1.65 2.86-2.35-.68c-.62.7-1.3 1.33-2.06 1.9l.5 2.63-2.74 1.67-2.05-2.07c-.75.24-1.52.42-2.32.53L28.96 45H25.8l-.73-2.66c-.86-.15-1.7-.39-2.5-.69l-2.15 1.93-2.71-1.73.66-2.65c-.6-.52-1.17-1.08-1.68-1.68l-2.86.59-1.57-2.9 1.88-2.07c-.25-.72-.46-1.46-.6-2.23L11 30v-3.35l2.55-.79c.14-.77.35-1.52.6-2.24l-1.6-1.99 1.6-2.88 2.43.66c.53-.64 1.12-1.24 1.76-1.78l-.48-2.7 2.76-1.65 1.83 1.9c.9-.33 1.82-.6 2.79-.75L26 12h3.16l.66 2.38c1 .15 1.96.4 2.88.74l1.87-1.73 2.73 1.68-.55 2.35c.83.67 1.58 1.42 2.23 2.26l1.96-.53 1.72 2.8-1.44 1.78c.28.77.49 1.58.62 2.42l2.15.77Z"/><circle cx="27.5" cy="28.5" r="10.5" fill="#FCFFF3"/><circle cx="27.5" cy="28.5" r="9.5" fill="#97C4D7"/><path d="M26.6 34.65H21.5V27h5.66l10.28 3.03v3.26l-10.82 1.36Z" fill="#FFEF19"/><path d="M27 29.5v-1.87l2.36 2.17-2.36-.3ZM30.23 29.76v-1.48L32.09 30l-1.86-.23ZM32.33 30.01v-1.1l1.39 1.27-1.39-.17ZM34.22 30.22v-.76l.95.88-.95-.12ZM35.42 30.46v-.66l.83.76-.83-.1ZM36.55 30.73v-.66l.82.76-.82-.1Z" fill="#090806"/><path d="M30.65 33.77 27 34.2v-1.87l3.65 1.44ZM34.7 33.26l-3.11.37v-1.6l3.1 1.23ZM37.16 32.91l-2.24.27v-1.15l2.24.88Z"/><path d="M38.29 32H19.64l1.76-2.12H27l10.57 1.31.72.81Z" fill="#CE261B"/><path d="M27.33 24.76c-.16-.17-.42-.44-.42-.86 0-.55.28-.6.47-.6.07 0 .13-.03.2-.07.1-.06.25-.15.54-.15.37 0 .6.27.68.4.02-.05.13-.17.36-.17.23 0 .33.26.36.39.13-.1.5-.28.88-.28s.45.23.44.34c.08-.09.3-.27.56-.27.26 0 .34.23.35.35.16-.02.47.02.47.31 0 .37-.41.46-.9.46-.24 0-.3.07-.34.14-.04.07-.09.13-.32.13a.94.94 0 0 1-.7-.27c.02.03-.1.11-.65.11s-.87-.08-.96-.11l-.9.27-.12-.12Zm4.76 1.74c-.14-.15-.39-.4-.39-.8 0-.5.26-.54.43-.54.07 0 .12-.03.19-.07.1-.06.24-.14.5-.14.34 0 .56.25.63.37.02-.05.12-.16.33-.16.22 0 .31.24.33.36.13-.08.47-.25.82-.25s.42.2.4.31a.78.78 0 0 1 .53-.26c.24 0 .32.22.32.33.15-.01.44.02.44.3 0 .33-.38.41-.83.41-.23 0-.28.07-.32.13-.04.07-.08.13-.3.13a.87.87 0 0 1-.64-.26c.01.04-.1.1-.6.1-.51 0-.81-.06-.9-.1l-.83.26a.77.77 0 0 0-.1-.12Z" fill="#F6F4F7"/><path d="M27.2 25.8v-1.18c.11-.1.4-.29.73-.29.32 0 .6.2.7.29v1.7l-1.42-.52Zm4.7 1.88V26.5c.08-.1.3-.28.54-.28.25 0 .46.19.53.28v1.7l-1.07-.5Z"/><path d="M27.05 27.24h-6.22l.68-1.63h5.62l10.26 3.84.5 1.03-10.84-3.24Z" fill="#CD301F"/><path d="M21.41 32.74c.45.69 3 3.47 4.23 4.78l1.1-1.42-2.38-2.14c0-1.19-.7-4.76-.37-5.1.25-.29 2.52 1.34 3.63 2.18-.78-1.1-2.6-3.3-3.63-3.3-1.3 0-1.3 3.11-1.3 3.21 0 .09-.48-1.52-.71-2.33l.43-.39c.47-1.02 1.52-3.08 1.95-3.08.42 0 1.04 1.56 1.3 2.34-.14-1.11-.56-3.34-1.09-3.34s-1.6 1.08-2.08 1.63l.2-.7c.44-1.03 1.5-3.06 2.17-2.99.66.07.92 1.75.96 2.58.2-1.08.08-3.72-.5-3.72s-1.45.65-1.16.3c.24-.29.87-.98 1.16-1.29-.9-.23-2.04 1.1-2.5 1.8.15-.82.25-2.45-.53-2.45s-2.1 1.04-2.66 1.55a6.48 6.48 0 0 1 2.17-.78c.61-.01.5.42.38.64a7.66 7.66 0 0 0-.76 2.36c-.04.76-.38 2.37-.54 3.08-.06-.67-.38-2.01-1.25-2.01s-1.77 2.4-2.1 3.6c.5-.81 1.6-2.45 1.88-2.6.35-.17.23-.14.42 1.16.15 1.04.58 2.72.78 3.43l-.5-.3c-1.24 0-1.51 5.5-1.42 5.43.1-.07 1.04-3.9 1.41-4.3.38-.4.75 1.3 1.31 2.17Z" fill="#03933B"/><ellipse rx=".99" ry=".86" transform="matrix(.6598 -.75145 .69267 .72125 26.2 36.84)" fill="#F9EE9F"/><path d="M23.43 34c.04-.04.1-.04.13 0l2.1 2.1a.1.1 0 0 1 0 .15.09.09 0 0 1-.13 0l-2.1-2.1a.1.1 0 0 1 0-.15ZM20.74 27.67c.05-.02.1 0 .12.06l1 2.9c.03.05 0 .1-.05.13-.04.02-.1 0-.12-.06l-1-2.9c-.02-.05 0-.11.05-.13ZM21.82 23.7c.05 0 .09.05.08.11l-.4 3.07c0 .06-.05.1-.1.09-.05-.01-.09-.06-.08-.12l.4-3.07c0-.05.05-.1.1-.08Z" fill="#8AFB91"/><ellipse cx="32.08" cy="40.3" rx=".27" ry=".3"/><ellipse cx="34.43" cy="39.23" rx=".27" ry=".3"/><path fill-rule="evenodd" d="m26.47 15.44.62-.03c.12 0 .23.01.32.05.1.03.16.08.21.16.06.07.08.16.09.26 0 .1-.01.17-.04.23a.41.41 0 0 1-.11.16.61.61 0 0 1-.12.08l.37.65v.02l-.39.01-.31-.57h-.24l.02.6h-.36l-.06-1.62Zm.65.73-.26.01-.02-.47.26-.01c.05 0 .1 0 .13.02.04.02.07.05.09.08.02.04.03.08.03.13 0 .04 0 .09-.02.12a.19.19 0 0 1-.08.09.27.27 0 0 1-.13.03Zm2.6.29-.01.07a.99.99 0 0 1-.11.32.7.7 0 0 1-.2.22.64.64 0 0 1-.24.12.74.74 0 0 1-.3 0 .67.67 0 0 1-.58-.58.99.99 0 0 1 .01-.34l.02-.07a.99.99 0 0 1 .1-.32c.06-.1.12-.17.2-.22.07-.06.16-.1.25-.12.1-.02.2-.02.3 0 .1.02.2.06.27.1.08.06.15.13.2.2.05.09.08.18.1.28a1 1 0 0 1 0 .34Zm-.38 0 .01-.07a.95.95 0 0 0 .02-.22.5.5 0 0 0-.04-.17.28.28 0 0 0-.09-.12.3.3 0 0 0-.14-.06.28.28 0 0 0-.27.08.5.5 0 0 0-.1.15 1 1 0 0 0-.05.22l-.02.07a1 1 0 0 0-.01.22c0 .07.01.12.03.17a.3.3 0 0 0 .1.12c.03.03.08.05.13.06h.15a.29.29 0 0 0 .12-.09.49.49 0 0 0 .1-.14.95.95 0 0 0 .06-.22Zm1.43-.62-.33 1.6-.35-.08.33-1.6.35.08Zm1.36 2.22.6-1.52-.33-.13-.39.98-.18-1.21-.33-.14-.6 1.52.34.13.38-.98.18 1.21.33.14Zm1.11.47-.13-.07-.18-.1-.14-.07.74-1.45.13.07.19.1.13.07c.1.05.17.11.24.19a.74.74 0 0 1 .16.54c-.01.1-.04.2-.1.3l-.03.07a.88.88 0 0 1-.2.26.67.67 0 0 1-.53.18c-.09 0-.18-.04-.28-.09Zm0-.32.48-.95.13.07c.05.03.1.06.13.1a.3.3 0 0 1 .06.14v.18a.83.83 0 0 1-.08.2l-.04.06c-.04.1-.1.17-.16.22a.35.35 0 0 1-.18.1c-.07 0-.14-.01-.21-.05l-.13-.07Zm3.1.5-.33-.25-.63.86a.37.37 0 0 1-.13.12.2.2 0 0 1-.13.02.39.39 0 0 1-.15-.07.4.4 0 0 1-.11-.12.23.23 0 0 1-.03-.14c0-.05.03-.1.07-.16l.63-.87-.33-.24-.62.86c-.08.1-.12.2-.12.31 0 .11.03.21.09.31s.14.2.25.28c.11.08.23.13.34.16.1.03.21.03.3 0 .1-.04.2-.11.27-.21l.63-.87Zm1.9 2.35.2.31.25.42-.24.15-.25-.42-1.14.7-.19-.31 1.14-.7-.25-.42.24-.15.25.42Zm.93 7.32h-.28V27.3h1.61v.37h-1.33v.7ZM27.26 40.8h.36a.6.6 0 0 1-.1.3.56.56 0 0 1-.22.2.76.76 0 0 1-.34.07.7.7 0 0 1-.28-.06.59.59 0 0 1-.22-.15.73.73 0 0 1-.13-.25 1.1 1.1 0 0 1-.04-.33v-.1c0-.12.01-.23.04-.33s.08-.18.14-.25a.6.6 0 0 1 .21-.15.67.67 0 0 1 .28-.06c.13 0 .25.03.34.08.1.05.17.11.22.2a.7.7 0 0 1 .1.3h-.36a.42.42 0 0 0-.04-.16.21.21 0 0 0-.1-.1.37.37 0 0 0-.16-.03.3.3 0 0 0-.14.03.24.24 0 0 0-.1.09.48.48 0 0 0-.05.15l-.02.23v.1c0 .09 0 .16.02.22 0 .07.03.12.05.16l.1.1a.3.3 0 0 0 .14.02c.06 0 .12 0 .16-.03a.22.22 0 0 0 .1-.1c.02-.03.03-.09.04-.15Zm-1.37.49.04-.28-.68-.1.2-1.34-.36-.05-.24 1.6.23.05.13.01.68.1ZM38.45 25.1l1.52-.54-.12-.34-1.51.54.11.34Zm-17.2 13.8.04-.05c.06-.11.1-.22.12-.32.02-.1.02-.2 0-.3a.64.64 0 0 0-.12-.25.74.74 0 0 0-.23-.2.74.74 0 0 0-.28-.1.64.64 0 0 0-.27.03.72.72 0 0 0-.25.15.98.98 0 0 0-.21.26l-.04.06c-.06.11-.1.22-.12.32-.02.1-.01.2 0 .3a.68.68 0 0 0 .35.44c.1.06.19.09.28.1.1.01.19 0 .28-.02a.7.7 0 0 0 .25-.15.98.98 0 0 0 .2-.26Zm-.28-.25-.04.07a.94.94 0 0 1-.13.18.48.48 0 0 1-.13.1.28.28 0 0 1-.29 0 .32.32 0 0 1-.1-.11.3.3 0 0 1-.05-.14c0-.05 0-.11.02-.17a1 1 0 0 1 .09-.2l.03-.07a.98.98 0 0 1 .13-.18.5.5 0 0 1 .14-.1c.04-.03.09-.04.14-.04.04 0 .1.02.14.05.05.02.09.06.11.1.03.04.04.09.05.14a.5.5 0 0 1-.02.17.94.94 0 0 1-.1.2Zm4.94-22.37.11.65a.65.65 0 0 1-.12.12c-.05.05-.13.1-.22.14a1.43 1.43 0 0 1-.67.1.69.69 0 0 1-.49-.32.92.92 0 0 1-.11-.31l-.02-.1a.92.92 0 0 1 0-.34.69.69 0 0 1 .33-.47.93.93 0 0 1 .3-.11 1 1 0 0 1 .42 0c.11.02.2.07.27.14s.12.16.15.26l-.4.07a.36.36 0 0 0-.07-.12.24.24 0 0 0-.12-.07.42.42 0 0 0-.18 0 .38.38 0 0 0-.15.06.3.3 0 0 0-.1.11.46.46 0 0 0-.04.17v.22l.03.1c.01.08.03.15.06.21s.06.1.1.14c.05.04.1.06.15.07.05.02.12.02.19 0 .05 0 .1-.02.13-.03a.4.4 0 0 0 .08-.05.3.3 0 0 0 .05-.04l-.05-.27-.32.06-.05-.25.74-.14Zm-5.34 1.13.08-.05 1.34 1.09-.34.2-.25-.23-.48.29.08.33-.33.2-.31-1.7.08-.06.13-.07Zm.29 1.01.32-.2-.46-.41.14.61Zm2.3-2.3-.08.02-.14.06-.09.03v1.74l.36-.14-.01-.34.52-.2.2.28.37-.14-1.12-1.32Zm0 .45.38.5-.36.13-.02-.63Zm17.14 9.42.01.1-1.47.89-.07-.39.3-.16-.1-.55-.34-.05-.07-.38 1.7.3v.1l.04.14Zm-.98.3.55-.3-.62-.07.07.37ZM34.7 37.35l-.08.06-.12.09-.07.05.48 1.67.3-.23-.1-.32.45-.34.27.2.3-.23-1.43-.95Zm.62.81-.3.23-.2-.6.5.37Zm-2.51.38.08-.03 1.2 1.24-.35.16-.22-.26-.51.23.04.34-.36.16-.1-1.74.08-.03.14-.07Zm.17 1.05.34-.16-.41-.47.07.63Zm-4.27.11-.09.01-.15.01-.1.01-.44 1.68.39-.03.07-.34.55-.05.13.32.39-.04-.75-1.57Zm.12 1.02-.38.04.14-.62.24.58Zm-4.56-1.44.1.03.11 1.73-.36-.1-.01-.35-.54-.16-.18.29-.37-.11 1.02-1.4.08.03.15.04Zm-.53.9.36.12-.02-.63-.34.52Zm-3.84-20.73a.2.2 0 0 0-.05-.04.15.15 0 0 0-.08-.02.4.4 0 0 0-.1.02l-.16.06-.2.08a.88.88 0 0 1-.2.03c-.07 0-.13 0-.19-.02a.39.39 0 0 1-.15-.12.39.39 0 0 1-.09-.17.43.43 0 0 1 0-.2.6.6 0 0 1 .09-.19.88.88 0 0 1 .43-.35c.1-.02.19-.03.28 0 .08.02.16.07.22.14l-.26.24a.23.23 0 0 0-.1-.07.18.18 0 0 0-.12 0 .29.29 0 0 0-.12.07.33.33 0 0 0-.08.1.19.19 0 0 0-.02.1c0 .04.02.07.04.1l.06.04h.09l.1-.03.13-.05c.08-.04.16-.06.23-.08a.7.7 0 0 1 .2-.03.41.41 0 0 1 .32.15.4.4 0 0 1 .1.36.57.57 0 0 1-.08.2.92.92 0 0 1-.59.39.5.5 0 0 1-.22-.03.49.49 0 0 1-.2-.14l.26-.25c.04.04.07.07.1.08a.2.2 0 0 0 .1.03l.1-.03a.55.55 0 0 0 .1-.08.33.33 0 0 0 .09-.1.17.17 0 0 0 .01-.1.17.17 0 0 0-.04-.09Zm16.68 1.21a.2.2 0 0 1-.05.06.17.17 0 0 1-.08.04c-.03 0-.06 0-.1-.02a.33.33 0 0 1-.1-.1.56.56 0 0 1-.07-.1.25.25 0 0 1-.02-.1c0-.04 0-.07.02-.1a.33.33 0 0 1 .09-.1l-.23-.28a.5.5 0 0 0-.15.2.51.51 0 0 0-.04.23l.06.23a.96.96 0 0 0 .3.38c.07.04.13.07.2.08a.39.39 0 0 0 .35-.08c.06-.04.1-.1.12-.14.03-.06.04-.11.05-.18 0-.06 0-.13-.02-.2a1.6 1.6 0 0 0-.08-.24 1.32 1.32 0 0 1-.07-.24v-.09l.05-.06a.16.16 0 0 1 .19-.01l.1.09a.3.3 0 0 1 .07.12.2.2 0 0 1-.01.12.24.24 0 0 1-.08.1l.23.27a.46.46 0 0 0 .15-.22.5.5 0 0 0 0-.28.88.88 0 0 0-.33-.45.6.6 0 0 0-.18-.1.42.42 0 0 0-.2 0 .38.38 0 0 0-.16.08c-.06.04-.1.1-.12.15a.47.47 0 0 0-.03.19c0 .06 0 .13.03.2.01.07.04.14.07.21l.05.16.01.1c0 .04 0 .06-.02.08Zm-5.32 19.75a.21.21 0 0 0-.03-.06.15.15 0 0 0-.06-.05.4.4 0 0 0-.1-.02h-.17l-.22-.02a.88.88 0 0 1-.2-.04.4.4 0 0 1-.26-.26.4.4 0 0 1-.01-.2.43.43 0 0 1 .07-.17.6.6 0 0 1 .16-.15.87.87 0 0 1 .53-.15.46.46 0 0 1 .4.33l-.33.11a.24.24 0 0 0-.06-.1.19.19 0 0 0-.1-.05l-.14.01a.33.33 0 0 0-.12.07.17.17 0 0 0-.05.18c0 .03.02.05.04.06l.07.04.11.02h.14c.1 0 .17 0 .25.02.07 0 .14.03.2.05a.42.42 0 0 1 .22.27c.03.07.03.13.02.2a.4.4 0 0 1-.06.17.56.56 0 0 1-.15.14.9.9 0 0 1-.7.13.5.5 0 0 1-.2-.11.5.5 0 0 1-.12-.22l.34-.11.06.11a.2.2 0 0 0 .19.07l.12-.03a.32.32 0 0 0 .12-.06.17.17 0 0 0 .05-.08v-.1ZM16.52 21.55l-.36.5 1.31.95.21-.3-.47-.34.13-.2.65.1.22-.31-.01-.01-.74-.1c.01-.05.02-.1.01-.15a.42.42 0 0 0-.05-.19.54.54 0 0 0-.16-.16.46.46 0 0 0-.26-.1.44.44 0 0 0-.25.08.85.85 0 0 0-.23.23Zm.46.65.15-.21a.29.29 0 0 0 .05-.13.2.2 0 0 0-.02-.11.27.27 0 0 0-.08-.1.27.27 0 0 0-.12-.05c-.04 0-.08 0-.12.02a.28.28 0 0 0-.1.1l-.15.2.39.28Zm22.42.83-.27-.57-1.44.73.16.32.52-.26.1.22-.39.53.17.35.02-.01.43-.6.12.07a.4.4 0 0 0 .2.04c.06 0 .13-.02.21-.06.1-.05.17-.1.21-.18a.46.46 0 0 0 .06-.27c-.01-.1-.04-.2-.1-.31Zm-.78.1.42-.21.11.23c.03.05.04.1.04.14 0 .04-.02.07-.04.1a.27.27 0 0 1-.1.09.26.26 0 0 1-.12.03.18.18 0 0 1-.11-.04.28.28 0 0 1-.09-.1l-.11-.24Zm-22.05.61-.14.24.48.3-.18.3-1.39-.82.32-.56c.07-.1.14-.2.23-.25a.5.5 0 0 1 .55 0 .5.5 0 0 1 .2.2.5.5 0 0 1 .04.27.8.8 0 0 1-.11.32Zm-.38.1.14-.24a.3.3 0 0 0 .04-.14c0-.04 0-.08-.03-.11a.3.3 0 0 0-.21-.13c-.04 0-.08 0-.12.02a.25.25 0 0 0-.1.1l-.15.25.43.25Zm2.73 13.67.2.2c.08.09.18.15.27.18.1.04.19.05.28.03a.49.49 0 0 0 .24-.15.52.52 0 0 0 .12-.54.73.73 0 0 0-.18-.28l-.45-.45-1.13 1.16.25.26.4-.4Zm.39 0-.2-.2.35-.36.2.2c.04.04.06.08.07.13l-.01.12a.31.31 0 0 1-.17.18.18.18 0 0 1-.12 0 .3.3 0 0 1-.12-.08Zm-4.68-11.39.03-.13.03-.17 1.2-.15-1.05-.61.03-.17.03-.13.03-.17 1.58.31-.07.36-.4-.08-.74-.18 1.07.64-.05.24-1.23.18.75.1.4.1-.06.35-1.58-.32.03-.17Zm7.44 12.37-.12-.05-.16-.07-.66 1.48.33.16.17-.39.28-.72-.11 1.26.22.1.86-.91-.34.69-.18.38.33.15.67-1.49-.16-.07-.12-.05-.15-.07-.83.9.12-1.23-.15-.07ZM15.9 27.1h.28l-.05.75v.13l-.02.24-1.61-.11.02-.24v-.13l.05-.74.28.02-.05.74.37.03.04-.63.27.01-.04.64.41.02.05-.74Zm3.27-6.38-.2-.2-.52.52-.3-.3.45-.44-.2-.2-.43.46-.26-.27.51-.53-.2-.2-.51.53-.09.09-.17.17 1.14 1.15.17-.17.09-.09.52-.52Z"/></svg>