<!-- by TradingView --><svg width="56" height="56" viewBox="0 0 56 56" xmlns="http://www.w3.org/2000/svg"><path fill="#ED1B24" d="M0 0h56v56H0z"/><path fill-rule="evenodd" d="m20 31 3.8-7.5c.17-.3.47-.5.8-.5a.9.9 0 0 1 .85.67l1.66 5.5 4.11-5.75a.97.97 0 0 1 .79-.42c.55 0 .99.48.99 1.08V31h-1.75v-4.78l-3.43 4.43a.88.88 0 0 1-.7.35h-.48a.92.92 0 0 1-.85-.65l-1.38-4.13L21.96 31H20ZM6 31l1.64-7h4.44c.53 0 1.58.37 1.58 1.77 0 1.75-1.9 2.2-2.26 2.24L13.2 31h-1.99l-1.76-3h-.82l-.67 3H6Zm2.85-4 .46-2h1.75c.24.02.72.18.72.65 0 .75-.64 1.35-1.42 1.35H8.85Zm8.08-3-1.63 7h1.92l1.66-7h-1.95ZM34 31l4.42-6.51c.2-.3.53-.49.88-.49.48 0 .91.35 1.05.85L42 31h-1.72l-.47-2h-2.69l-1.4 2H34Zm3.82-3h1.76l-.44-1.88L37.82 28ZM51 24.37l-.5 1.4c-.32-.1-1.19-.3-2.04-.3-1.07 0-3.47.4-3.47 2.64 0 1.78 3.09 1.65 4.64 1.37l-.56 1.27c-.28.08-1.02.25-1.7.25-.87 0-4.37-.32-4.37-2.72C43 25.9 45.34 24 48.58 24c.49 0 1.66.06 2.42.37Z" fill="#fff"/></svg>