<!-- by TradingView --><svg width="56" height="56" viewBox="0 0 56 56" xmlns="http://www.w3.org/2000/svg"><path fill="#F0F3FA" d="M0 0h56v56H0z"/><path d="M32.61 12.18 29.5 26h5.53c.72.01 1.45.8 1.77 1.45.31.65.24 1.4-.2 1.97L25.88 43.36a16 16 0 0 0 6.74-31.18ZM26.52 29h-5.6c-.72-.01-1.38-.8-1.7-1.45-.31-.65-.24-1.4.2-1.97l10.7-13.94a16 16 0 0 0-6.74 31.18L26.53 29Z" fill="#015CA3"/><path d="M33.23 31.85c1.36-1.78.51-4.28-2.13-4.3L28 27.5l-3.44 15.6 8.67-11.25Zm-10.45-8.7c-1.36 1.78-.51 4.28 2.13 4.31l3.1.04 3.43-15.6-8.66 11.25Z" fill="#F5CC37"/></svg>