<!-- by TradingView --><svg width="56" height="56" viewBox="0 0 56 56" xmlns="http://www.w3.org/2000/svg"><path fill="#F0F3FA" d="M0 0h56v56H0z"/><path fill-rule="evenodd" d="M24.2 20.14c.5.28.75.85.64 1.4l-.22 1.02-.01.02a.04.04 0 0 1-.06-.02 2.78 2.78 0 0 0-.24-.43 6.08 6.08 0 0 0-.86-.99l-.05-.04-.38-.35-.02-.02 1.2-.59Zm0 0 1.04-.5-1.04.5Zm-1.2.58-.02.01h.01Zm-.2-.13.13.08.05.04.01.01 1.21-.58-.27-.15a2.57 2.57 0 0 0-1.97-.26.06.06 0 0 0-.02.1l.87.76Zm-2.26-.05c.3-.17.3-.55.3-.9 0-.54 1.24-1.14 2.64-.78.41.1.88-.17.88-.6v-.7a.9.9 0 0 0-.82-.91c-.33-.02-.7-.04-1.11-.04-1.78 0-4.67.85-4.67 3.27 0 .33.15 1.11.65 1.62.09.1.23.1.34.05l1.8-1.01Zm-1.94 2.3h-.04c-.29-.25-.58-.51-.78-.72-.38-.38-.6-.84-.72-1.22a3.6 3.6 0 0 1-.18-1v-.02c0-1.64 1-2.7 2.13-3.32 1.1-.6 2.42-.84 3.42-.84.93 0 1.75.1 2.06.14.43.07.75.44.75.87v2.9a.76.76 0 0 1 .48-.55l.06-.02a14.4 14.4 0 0 1 4.34-.86 3 3 0 0 1 1.82.47c.25.17.68.05.72-.25l.01-.04a.34.34 0 0 1 .32-.3l3.96-.28c.02 0 .03.01.03.03 0 .01.02.03.04.02a4.8 4.8 0 0 1 1.94-.4c1.23 0 2.04.5 2.47 1.26.37.68.35 1.41.31 1.77-.05.48-.47 3.46-.67 4.86a.2.2 0 0 0 .21.22l.68-.05c.04 0 .08.03.08.08s.06.09.1.06c.7-.34 1.57-.6 2.59-.6 1.46 0 2.4.59 2.88 1.47.44.78.41 1.64.37 2.07-.07.6-.59 4.3-.84 6.05a.88.88 0 0 1-.84.76l-1.82.08a2 2 0 0 1-2.07-2.27l.4-2.93c.02-.08.02-.18.02-.28-.01-.11-.03-.2-.06-.25a.1.1 0 0 0-.08-.06h-.03c-.25 0-.53.13-.81.56a4.73 4.73 0 0 0-.6 2.05 49.73 49.73 0 0 1-.34 2.83c-.07.4-.4.71-.81.74l-4.36.3-.01.02-.02.01-3.55.25c-.69.15-2.25.43-3.22.43-.7 0-1.47-.16-2.1-.65-.24-.19-.66-.08-.7.22l-.06.3a.46.46 0 0 1-.42.4l-4.22.22a.06.06 0 0 1-.06-.05.06.06 0 0 0-.08-.06c-.7.31-1.6.52-2.7.53-.53.03-1.31-.1-1.96-.62-.3-.25-1.37-.17-1.57.16a5.2 5.2 0 0 1-.9 1.13c-1.04.98-2.61 1.65-4.83 1.53h-.01l-1.49-.12a2 2 0 0 1-1.84-2V36.1a.88.88 0 0 1 1.2-.82c.31.12 1.17.38 1.96.38.48 0 .76-.1.94-.23.17-.13.35-.36.46-.86.23-.97.8-5.21 1.07-7.26a.88.88 0 0 1 .8-.77l2.47-.2c.65-.06 1.14-.6 1.14-1.24v-.63c0-.69.74-1.1 1.33-.76a3.7 3.7 0 0 0 2.21.38c.12-.02.15-.15.08-.23a19.35 19.35 0 0 0-1.06-1Zm2.6-.34c-.53.3-.35.96-.35 1.57 0 .56-.62.93-1.82.93a4.5 4.5 0 0 1-1.23-.18c-.4-.12-.88.17-.88.6v.75c0 .49.37.9.85.92.33.02.74.03 1.2.03 1.07 0 3.8-.26 4.65-2.2l.08-.2a3.31 3.31 0 0 0 .17-1.18 1.77 1.77 0 0 0-.46-1.15c-.4-.5-1.12-.55-1.67-.22l-.55.33ZM20 24.27v-.02.02ZM23.94 27c-.28.02-.46-.42-.26-.63a.35.35 0 0 1 .5.02c.1.12.22.24.35.34.09.06.05.21-.05.22l-.54.05ZM27 31.37c-.02.01-.05 0-.04-.02l.66-4.11c0-.03.03-.05.06-.06l.63-.1c.03 0 .04.03.01.04-.28.1-.49.35-.55.65L27 31.35v.02Zm1.54-2.99a.77.77 0 0 1 .5-.57c1.06-.35 2.96-.84 4.6-.84.89-.07 2.6.3 2.28 2.33-.2 1.38-.48 3.14-.7 4.5a2 2 0 0 1-1.83 1.68l-1.35.1c-.66.14-2.2.42-3.1.42-1.13 0-2.28-.55-2.28-2.1 0-1.56 1.45-2.5 3.41-3.14l.63-.2c1.58-.5 2.47-.78 1.88-1.5-.42-.49-2.08-.02-3.38.46-.42.16-.86-.2-.77-.63l.1-.5Zm3.47.74Zm3.96-2.78c-.01.05-.05.09-.1.1h-.1c-.1 0-.12.13-.05.18.38.25.71.62.92 1.12.03.09.21.08.22-.02l.18-1.27a.18.18 0 0 0-.18-.2c-.11 0-.2-.1-.19-.2l.59-4.26v-.19c0-.05-.04-.08-.09-.06-.1.04-.23.13-.37.35-.21.32-.39.86-.46 1.56a39.89 39.89 0 0 1-.27 2.29l-.1.6Zm-4.49-2a2 2 0 0 1-1.83 1.68l-.8.06c-.53.11-1.78.34-2.51.34-.83 0-1.67-.37-1.82-1.37a1.81 1.81 0 0 1 .23-1.28c.43-.72 1.36-1.22 2.51-1.6l.5-.16c1.3-.41 2.01-.64 1.53-1.21-.31-.38-1.53-.07-2.56.3-.41.15-.85-.21-.76-.65l.04-.21c.05-.22.2-.4.42-.47.85-.28 2.4-.68 3.72-.68.73-.05 2.1.25 1.86 1.9l-.53 3.36Zm-2.74-3.63h-.01Zm-1.07 4.18c-.26 0-.4-.08-.48-.18-.11-.13-.1-.34-.02-.49.12-.21.42-.5 1.07-.79.43-.2.87.18.8.65v.06a.61.61 0 0 1-.35.48c-.3.13-.7.27-1.02.27Zm-5.41 2.46c.11-.05.24.05.22.17l-.04.3-.55 3.72c-.17 1.2-.61 1.6-.94 1.7a.14.14 0 0 1-.18-.11v-.17l.9-4.9a.99.99 0 0 1 .59-.7Zm-3.62.94c1.08-.06 1.93.9 1.73 1.96l-.48 2.6c-.04.43.07 1.31.87 1.31 1 0 1.78-.9 2-2.5l.36-2.44a1.62 1.62 0 1 1 3.21.5l-.86 5.27a1.62 1.62 0 0 1-1.5 1.36l-1.5.08a.2.2 0 0 1-.21-.2c0-.21-.4-.35-.57-.22l-.31.22c-.6.36-1.51.67-2.8.67-.76.06-2.23-.36-2.06-2.46.12-1.51.38-3.4.6-4.77.11-.77.75-1.34 1.52-1.38Zm-3.78 7.06.85-6.11a1.7 1.7 0 1 0-3.39-.46c-.29 2.18-.7 5.15-.9 5.98-.3 1.28-1.08 1.78-2.26 1.78-.48 0-.98-.08-1.4-.18-.43-.1-.88.21-.88.66v.8c0 .61.47 1.12 1.08 1.17l1.43.11c4 .22 5.31-2.4 5.47-3.75Zm27.9-5.65Zm-1.6-2.96c0 .25.36.39.55.23l.33-.24c.63-.42 1.54-.8 2.69-.8 2.39 0 2.45 1.85 2.37 2.56-.05.46-.39 2.88-.65 4.75a1.56 1.56 0 0 1-3.1-.44l.34-2.39c.08-.53 0-1.6-1.03-1.6-1.27 0-2.1 1.43-2.3 3.4l-.15 1.48c-.09.76-.7 1.33-1.47 1.39A1.66 1.66 0 0 1 37 33.19l.71-5.1c.12-.82.78-1.44 1.6-1.5l1.58-.11c.15-.01.28.1.28.26Zm-2.2-8.41a3.9 3.9 0 0 0-1.98.53 3.2 3.2 0 0 0-.83.67c-.01.03-.05.01-.05-.02v-.54a.2.2 0 0 0-.22-.2l-1.27.09a1.4 1.4 0 0 0-1.28 1.2l-.58 4.1c-.12.83.57 1.56 1.4 1.5.62-.04 1.12-.5 1.19-1.1l.12-1.2c.16-1.58.82-2.73 1.85-2.73.81 0 .88.86.82 1.3l-.26 1.91a1.25 1.25 0 0 0 2.48.35l.52-3.8c.06-.58.01-2.06-1.9-2.06Zm-17.26 1.2Zm-.06.37Zm8.93 14.21c.41 0 .9-.17 1.26-.33.24-.1.4-.33.43-.6l.04-.3c.07-.47-.37-.84-.8-.66-1.01.42-1.44.84-1.57 1.13a.54.54 0 0 0 .02.5c.08.13.27.26.62.26Z" fill="#008036"/><path fill-rule="evenodd" d="M24.36 16.73v2.49c-1.72-.97-3.52-.24-3.52.43 0 .52 1.06 1.39 1.59 1.75 1.14 1.05 1.44 1.47 1.44 2.23 0 3.13-3.63 3.49-4.9 3.49-1.03 0-1.8-.07-2.05-.1v-2.56c.3.18 1.15.54 2.11.54 1.2 0 1.82-.37 1.82-.93 0-.4-.93-1.22-1.7-1.88-.3-.27-.57-.5-.74-.69a2.6 2.6 0 0 1-.65-1.62c0-2.42 2.9-3.27 4.67-3.27.88 0 1.65.08 1.93.13Zm1.39 4.76.34-1.6c.72-.27 2.54-.8 4.06-.8.73-.05 2.1.25 1.86 1.9l-.78 4.92-2.37.17c-.54.11-1.8.34-2.52.34-.91 0-1.85-.45-1.85-1.7 0-1.27 1.17-2.03 2.77-2.55l.5-.16c1.3-.41 2.01-.64 1.53-1.21-.43-.52-2.54.25-3.54.7Zm3.43 1.6-.19 1.38c-.24.14-.85.42-1.32.42-.48 0-.58-.28-.56-.42-.05-.24.3-.85 2.07-1.38Zm-.55 4.86-.42 1.98c1.23-.55 3.84-1.5 4.37-.86.59.7-.3.99-1.88 1.5l-.63.2c-1.96.63-3.4 1.57-3.4 3.12 0 1.56 1.14 2.1 2.27 2.1.9 0 2.44-.27 3.1-.42l2.93-.2c.19-1.18.65-4.05.95-6.07.31-2.02-1.4-2.4-2.28-2.33-1.88 0-4.12.65-5 .98Zm3.58 5.65.23-1.7c-2.18.65-2.61 1.4-2.56 1.7-.01.17.11.51.7.51.57 0 1.32-.34 1.63-.51Zm1.27-14.66-.96 6.84 2.68-.19c.04-.21.14-.95.26-2.22.16-1.59.82-2.74 1.85-2.74.81 0 .88.86.82 1.3l-.47 3.4 2.54-.11c.2-1.42.62-4.38.67-4.84.06-.57.01-2.05-1.9-2.05a3.7 3.7 0 0 0-2.87 1.27v-.85l-2.62.19Zm3.22 16.28 1.2-8.53 3.26-.23v1.07a4.6 4.6 0 0 1 3.57-1.6c2.39 0 2.45 1.85 2.37 2.56-.06.58-.58 4.26-.83 6.03l-3.16.14.58-4.25c.08-.53 0-1.6-1.03-1.6-1.27 0-2.1 1.43-2.3 3.4-.15 1.59-.28 2.51-.32 2.78l-3.34.23ZM16 27.12l-3.5.3c-.26 2.01-.84 6.32-1.08 7.34-.3 1.28-1.08 1.78-2.26 1.78-.94 0-1.91-.3-2.28-.45v2.81l2.5.2c4.01.22 5.33-2.4 5.48-3.75l1.15-8.23Zm1.33 1.25 3.43-.2-.87 4.67c-.04.44.07 1.32.87 1.32 1 0 1.78-.9 2-2.5.2-1.26.45-3 .55-3.7l3.35-.3-1.4 8.62-3 .16v-1.07c-.25.51-1.34 1.53-3.69 1.53-.75.06-2.22-.36-2.05-2.46.17-2.1.6-4.92.8-6.07Z" fill="#F0F3FA"/><path d="M26.36 16.62c-.05.35-1.07 1.18-1.17 1.24.12.96 4.29.36 6.2.36 1.91 0 3.17-.32 6.91-.97 3.75-.64 2.02-.17 2.85-.46.66-.23 1.04-.98 1.15-1.32-.5-.04-1.47-.2-1.5-.5-.05-.38 2.13-.75 2.2-.7-.77-.62-2.79-.02-5.12.23-1.87.2-7.07.4-9.43.47-.21.06-.67.17-.85.15-.18-.01-.13.1-.09.16-.1.03-.38.1-.64.19-.34.1-.33 0-.05.1.28.11.1.23-.28.28-.39.04-.25 0-.38.05l-.42.17.62.55Z" fill="#E1000F"/><path fill-rule="evenodd" d="m36.6 15.15-.86 1.6h.6l.17-.35h.5v.34h.69l-.2-1.6h-.9Zm.41.96h-.34l.17-.32H37v.32Zm-2.56-.8-.18.47h.52l-.74 1.12h1.33l.23-.48h-.54l.82-1.12h-1.44ZM32.61 17l.38-1.6h1.2l-.13.34h-.65l-.07.29h.59l-.1.32h-.54l-.1.3h.69l-.15.35h-1.12Zm-4.67-1.19-.38 1.6h1.12l.15-.36h-.7l.11-.3h.54l.1-.32h-.6l.08-.28h.65l.14-.34h-1.21Zm-1.96 1.03c.16-.9 1.14-.96 1.6-.88l-.36.63c-.32-.12-.45.04-.48.13-.02.07-.02.2.14.2s.27-.05.3-.08l.21.49c0 .07-.14.21-.7.21-.57 0-.7-.47-.7-.7Zm3.37-1.06-.27 1.48h.55l.13-.57c.12-.01.37 0 .38.23v.34h.61v-.34c0-.11-.05-.35-.21-.43.09-.06.27-.23.27-.4.01-.1-.05-.3-.37-.3h-1.09Zm.54.22-.09.31c.13.02.4.02.4-.16 0-.12-.2-.15-.3-.15Zm1.19-.37.15 1.46h.66l.82-1.6h-.68l-.3.58-.05-.44h-.6Z" fill="#9B000A"/><path fill-rule="evenodd" d="m36.5 14.95-.88 1.6h.6l.18-.34h.5v.34h.68l-.2-1.6h-.89Zm.4.97h-.34l.17-.32h.17v.32Zm-2.56-.81-.18.48h.52l-.75 1.11h1.34l.23-.47h-.55l.83-1.12h-1.44Zm-1.84 1.7.38-1.6h1.2l-.13.34h-.65l-.08.29h.6l-.1.32h-.54l-.1.3h.68l-.14.35H32.5Zm-4.67-1.2-.38 1.6h1.12l.14-.35h-.68l.1-.3h.54l.1-.32h-.6l.08-.28h.65l.13-.34h-1.2Zm-1.96 1.04c.16-.9 1.14-.96 1.6-.88l-.37.63c-.31-.12-.45.03-.47.13-.02.07-.02.2.14.2s.27-.05.3-.08l.21.48c0 .07-.14.22-.7.22-.57 0-.71-.47-.71-.7Zm3.37-1.06-.28 1.47h.56l.12-.56c.13-.02.38 0 .39.22v.34h.61v-.34c0-.1-.06-.34-.22-.42.1-.07.28-.24.28-.4 0-.1-.05-.31-.37-.31h-1.09Zm.54.22-.1.3c.14.03.4.03.4-.15 0-.12-.2-.15-.3-.15Zm1.19-.38.14 1.47h.67l.81-1.6h-.68l-.3.58-.04-.45h-.6Z" fill="#F0F3FA"/><path d="M21.17 20.64c-.23-.1-.69-.45-.69-1.04 0-.74.73-1.21 2.13-1.21.32 0 1.02.06 1.27.18v-1.65h.3v2a5 5 0 0 0-1.66-.3c-.9 0-1.76.39-1.76.98 0 .47.28.9.41 1.04Zm-4.1 6.08v.2c.38.02 1.3.07 1.95.07.8 0 4.7-.36 4.7-3.35.03-.31-.13-1.1-.9-1.69.23.25.68.94.68 1.7 0 .94-.86 3.11-4.48 3.11l-1.95-.04Zm9.04-5.82-.06.2a13.8 13.8 0 0 1 2.45-.67c.52 0 .84.17.84.18-.18-.25-.52-.33-.67-.33-.96 0-2.1.41-2.56.62Zm2.45 8.55.08-.26a8.9 8.9 0 0 1 3.16-.77c.19.01.61.1.84.41-.01 0-.4-.22-1.04-.22-.52 0-2.24.56-3.04.84Zm.74-6.62.03-.4c-2.68 1.04-2.68 1.6-2.68 1.92 0 .26.18.4.26.44a.9.9 0 0 1-.03-.43c.27-.76 1.72-1.34 2.42-1.53Zm3.32 8.27-.04.48c-.86.24-2.66.96-3 1.9-.01.1-.03.34.05.53a.6.6 0 0 1-.33-.53v-.02c0-.39 0-1.08 3.32-2.36Zm-6.14-5.01c-.9 0-1.3-.27-1.37-.4.12.19.56.59 1.37.59s1.9-.3 2.33-.46l2.29-.04c.24-1.46.73-4.5.79-5.06.06-.56-.29-.93-.46-1.05.22.22.2.92.16 1.24l-.7 4.7h-2.08c-.4.15-1.43.48-2.33.48Zm.9 9.03c.11.17.6.5 1.71.5 1.12 0 2.4-.4 2.9-.6h2.57l.86-5.82c.05-.4.07-1.25-.2-1.52.22.14.64.6.56 1.3-.07.68-.68 4.46-.97 6.26l-2.83.05c-.54.19-1.89.56-2.89.56-1 0-1.55-.49-1.7-.73Zm8.53-16.1h-.26v.58l.26.2v-.77Zm4.72 7.8h.33v.98l-.33-.25v-.72Zm-7.89-1.21.04-.28 1.97-.11.48-2.97c.56-1.93 1.34-1.99 2-1.99.53 0 .69.28.7.41-.2-.21-.55-.25-.7-.24-1.04 0-1.6 1.21-1.76 1.82l-.5 3.2-2.23.16Zm4.27 9.15-.05.35 2.82-.2.62-4.02c.2-.77.9-2.3 2.22-2.3.2-.01.64.04.89.3-.02-.16-.22-.5-.89-.5-.83 0-1.82.06-2.53 2.5l-.6 3.73-2.48.14Zm.84-9.58c0-.1.03-.3.04-.35h1.97c.18-1.2.55-3.75.62-4.32a3.66 3.66 0 0 0-.2-1.5c.44.31.45 1.17.4 1.57l-.65 4.49-2.18.1Zm5.6 8.95a7.8 7.8 0 0 0-.05.44l2.76-.14.8-5.65c.07-.5.07-1.58-.5-1.97.12.33.35 1.17.26 1.89-.08.71-.55 3.92-.78 5.43h-2.5Zm-33.48 4.8c-.97 0-2.34-.17-2.9-.26h2.9a4.3 4.3 0 0 0 4.5-3.86l.97-7.39.34-.06c-.21 1.47-.72 5.06-1.07 7.68-.44 3.27-3.51 3.9-4.74 3.9Zm10.06-10.49c.06-.02.3-.04.42-.05-.4 1.51-1.1 4.75-.59 5.56-.2-.1-.53-.62-.34-1.93.2-1.32.42-2.93.51-3.58Zm-1.4 8.1c-.99 0-1.37-.24-1.44-.36.04.19.39.57 1.44.57a5.09 5.09 0 0 0 3.7-1.69l-.33-.28a4.37 4.37 0 0 1-3.37 1.77Zm3.78-.57c0 .1 0 .28.03.27l2.7-.2 1.23-8.14h-.36l-1.08 7.85-2.52.22Z" fill="#D7BF84"/></svg>