<!-- by TradingView --><svg width="56" height="56" viewBox="0 0 56 56" xmlns="http://www.w3.org/2000/svg"><path fill="#96002D" d="M0 0h56v56H0z"/><path d="m44 29.39-.45-.13c-3.06-.77-6.8-.66-10.21-.56-5.68.18-10.42.32-9.52-3.7H12.28a16 16 0 0 0-.25 2h8.71l-.32.3c-.8.75-1.96 1.82-1.96 2.89 0 1.52 4.11 2.55 13.19 2.55 6.35 0 9.6 1.35 10.79 2.28A15.88 15.88 0 0 0 44 29.39ZM33.16 43.16c.37-2.42-.48-5.54-5.4-6.79-2.42-.6-4.43-1.02-6.1-1.37-3.99-.82-6.08-1.26-7.24-3h-1.91a16.03 16.03 0 0 0 20.65 11.16ZM12.19 30.5c-.1-.65-.16-1.32-.18-2h5.82a3.24 3.24 0 0 0-1.54 1.81l-.08.19H12.2Zm.45-7h11.93c.24-.5.65-1.37 1.95-2H13.38c-.29.65-.54 1.31-.74 2Zm1.5-3.5h14.83c-.76.73-2.28 2.61-2.28 3.83 0 1.78 2.28 2.3 7.76 2.29l5.97-.22.35-.02 3.13-.16c-.2-1.35-.56-2.64-1.06-3.86-1.28.33-3.25.57-6.24.57-7.7 0-6.09-2.53-4.33-3.93H15.13c-.36.48-.68.98-.99 1.5Zm2.25-3H35.8c-.28.4-.84 1.56-.84 1.63l-.01.18c-.04.55-.1 1.26 2.77 1.26h4.24c-1.01-1.76-2.35-3.31-3.92-4.57H18.02c-.58.46-1.12.96-1.63 1.5Zm3.87-3H35.8a15.98 15.98 0 0 0-15.54 0Z" fill="#fff"/></svg>