<!-- by TradingView --><svg width="56" height="56" viewBox="0 0 56 56" xmlns="http://www.w3.org/2000/svg"><path fill="#0A4127" d="M0 0h56v56H0z"/><path d="m32.75 19.08 3.14.05 1.38 3.24c1.23-2.18 3.68-6.57 3.66-6.67-.02-.09.65-2.77.99-4.1l2.13.54 1.8.35h.73l-2.53 5.08c-1.9 2.78-5.54 8.12-6.28 9.17l1.47.03.42 2.22-1.7.87v.01c0 .8-.08 1.56-.26 2.3l1.58 1.27-1.04 2-1.8-.32c-.2.32-.41.62-.65.91l1 1.96-1.78 1.4-1.7-1.15a10 10 0 0 1-1.08.58l-.03 2.12-2.23.43-.9-1.67a10.2 10.2 0 0 1-1.42.05l-.72 1.94-2.25-.32-.36-2.3a10 10 0 0 1-1.3-.62l-1.62 1.22-1.1-.95c-2.43 2.02-6.36 5.18-6.85 5.23-.55.06-.61-.02-.58-.07v-2.05l6.78-4.94.43.4.4-.89c-.39-.43-.73-.9-1.04-1.4l-1.84.53-1.07-1.99 1.67-1.64a9.8 9.8 0 0 1-.19-1.4l-2.04-.69.28-2.24 2.1-.36c.12-.39.25-.77.4-1.13l-1.52-1.54 1.25-1.87 2.06.6c.31-.34.65-.66 1-.96l-.77-1.81 1.87-1.29 1.8 1.41c.46-.17.92-.3 1.4-.4l.25-1.9 2.27-.17.35.87 2.92.05.25-.36.87.37Zm-3.26 1.02-.65-.74.28.69.37.05Z"/><path d="M37.75 15.52a16.36 16.36 0 0 1-9.1 3.37c.84.92 4.78.75 6.64.55l-1.32 2.8c-4.89 3.81-14.95 11.71-16.09 12.89-1.43 1.46-5.53 3.37-6.27 3.77-.59.32-1.98.88-2.61 1.12 2.41.42 5.16-.92 6.24-1.64-.67.76-2.1 2.36-2.49 2.64-.4.28-.92.49-1.14.56-.37 1.2.74 2.12 1.38 2.42v-1.53l.85.67c.06.04 2.39-2.2 3.54-3.33l.16-.9.34.09c.45.26.66.24.7.19L36.5 25.7l1.42-1.01.7 3.8 1.02 2.47v-4.36a15.57 15.57 0 0 1 2.52-5.7l2.96-2.85c.22 1.84 2.01 3.34 2.88 3.86-1.16-1.95-1.18-5.46-1.04-6.97-1.04.38-1.94.21-1.74-.16.16-.3.6-1.47.8-2.03.28-.03.78-.15.53-.3-.31-.2-2.68-.9-2.8-.9-.24.7-1.33 2.55-1.84 3.39.1-.73.33-2.25.49-2.5.15-.25.64-.41.86-.46-1.27-.63-1.61-1.59-1.63-1.99-1.74 1.56-4.95 2.5-6.34 2.76 1.63.46 3.84.4 4.74.32-.75 1.07-.95 3.55-.96 4.66l-.76.64c.39-.78-.1-1.44-.4-1.68l-.16-1.18Z" fill="#7EC228"/><path d="M40.8 11.16a41 41 0 0 1-4.43 1.5c1.11.16 3.78.19 5.57-1.07-.4-.03-.93-.3-1.14-.43Zm-5.37 6.93c-.1.07-2.73.64-4.04.91 5.14-.12 7.1-1.27 6.48-1.06-.37.12-1.13.12-1.7.11-.39 0-.7 0-.74.04Zm5.37-5.4h.91c-.25.75-.78 2.4-.9 3l-1.43 1.77c.15-1.1.63-3.6 1.42-4.77Zm2.53 2.36c.59-.59 1.24-2.14 1.5-2.84l1.07.32-2.68 4.38-1.39-.88c.26-.08.92-.39 1.5-.98Zm-1.76 1.74.92.85-2.91 3.1L38.5 20l3.07-3.22Zm-3.71 7.3-2-1.46 1.65-2.55 2.03.92-1.68 3.1Zm2.25-2.13-1.74 3.59.3 1.13.74.13.7-4.85Zm6.6-5.25-1.13-1.06c-.32.91-.33 3.35 2.16 5.85a14.43 14.43 0 0 1-1.02-4.8ZM12.6 39l3.48-2.34c.52-.05 1.71-.35 2.32-1.2-.48.95-2.3 2.97-5.8 3.54Zm1.28 4.12-1.32-.98 4.78-3.51-.05-.02 1.79-1.59 1.24.83-1.76 1.28-1.12-.46v1.14l-3.56 3.3Z" fill="#629B1D"/><path d="M45.53 13.66c-.19-.55-1.19-.68-1.67-.67.27-.08 1.3-.06 1.77-.04l-1.3-.53c.65-.05 1.58.14 1.97.25a31 31 0 0 0-.7 1.25l-.07-.26Zm-3.24 4.03c-.03-.7-1.1-1.16-1.63-1.31.31 0 1.45.36 1.98.54l-1.27-1.03c.74.15 1.71.68 2.11.93-.4.38-1.2 1.16-1.2 1.18v-.3Zm-5.3 2.6c.56.06 1.7.36 1.83 1.04l.05.3c0-.02.66-.9.99-1.35a7.99 7.99 0 0 0-2.23-.59l1.41.82a11.9 11.9 0 0 0-2.04-.23ZM17.3 39.47c-.02-.7-1.1-1.16-1.63-1.31.32 0 1.46.36 1.99.54l-1.27-1.03c.73.15 1.71.68 2.1.93-.39.38-1.18 1.16-1.18 1.18v-.31Z"/><path d="m25.31 17.53 2.27-.17.76 1.9c.54.06 1.07.16 1.58.3l1.18-1.64 2.09.9-.25 2.17c.37.26.73.54 1.06.85l1.92-.74 1.25 1.88-1.18 1.4c.27.5.5 1.02.68 1.56l1.8.04.4 2.22-1.68.87v.01c0 .79-.1 1.55-.27 2.29l1.58 1.28-1.04 2-1.8-.33c-.2.32-.41.63-.65.92l1 1.95-1.79 1.4-1.7-1.15a10 10 0 0 1-1.07.59l-.03 2.12-2.23.43-.9-1.67a10.2 10.2 0 0 1-1.42.05l-.72 1.94-2.25-.32-.36-2.3a9.99 9.99 0 0 1-1.3-.62l-1.62 1.21-1.73-1.47.8-1.8c-.38-.42-.72-.89-1.03-1.39l-1.84.53-1.07-2 1.67-1.64a9.8 9.8 0 0 1-.2-1.4l-2.03-.68.28-2.24 2.1-.37c.12-.38.25-.76.4-1.13l-1.52-1.53 1.25-1.88 2.06.61c.31-.34.65-.66 1-.96l-.77-1.82 1.87-1.28 1.8 1.41c.46-.17.92-.3 1.4-.41l.25-1.89Z" fill="#FEF900"/><path d="m33.38 28.3-6.36-1.81-6.33 1.8c.4-3.1 3.1-5.5 6.34-5.5 3.26 0 5.94 2.4 6.35 5.51Z" fill="#F01B24"/><path d="M20.68 30a6.31 6.31 0 0 0 6.35 5.46A6.31 6.31 0 0 0 33.4 30h-12.7Z" fill="#00A347"/><path d="M26.7 25v-.19c0-.17.14-.3.31-.3a.3.3 0 0 1 .31.3v.2c.4.14.68.52.68.97V27h.2v-1.1l.24-.4.32.4v1.06c.52.15 1.78.37 2.7 0l.31-.52.23.52v2.43l.38.83V32h-.6l-.32-.42H28v-3h-2v3h-3.43L22 32h-.48v-1.78l.47-.83v-2.4l.29-.41.28.42c.3.22 1.28.53 2.64-.04V25.9l.32-.4.28.4V27H26v-1.02a1 1 0 0 1 .7-.99Zm-.5 1.04V27h1.5v-.96c0-.41-.33-.74-.75-.74a.74.74 0 0 0-.74.74Zm.75-.31-.46.45.46.46.46-.46-.46-.45Z" fill="#E9E9E9"/><path fill-rule="evenodd" d="M27.03 35.93c3.8 0 6.87-3.05 6.87-6.8 0-3.76-3.07-6.8-6.87-6.8a6.83 6.83 0 0 0-6.86 6.8c0 3.75 3.07 6.8 6.86 6.8Zm0-.52c3.51 0 6.36-2.81 6.36-6.28a6.32 6.32 0 0 0-6.36-6.29 6.32 6.32 0 0 0-6.35 6.29 6.32 6.32 0 0 0 6.35 6.28Z" fill="#fff"/><path fill-rule="evenodd" d="M27 38a9 9 0 1 0 0-18 9 9 0 0 0 0 18Zm0-1a8 8 0 1 0 0-16 8 8 0 0 0 0 16Z" fill="#F01B24" fill-opacity=".8"/><path d="M22.5 31H26v.52h-3.5V31ZM28 31h3.42v.52H28V31ZM22 30.23h-.47V32h.46v-1.77Zm10.38 0h-.58V32h.58v-1.77Z" fill="#D2363B"/></svg>