<!-- by TradingView --><svg width="56" height="56" viewBox="0 0 56 56" xmlns="http://www.w3.org/2000/svg"><path fill="#F0F3FA" d="M0 0h56v56H0z"/><path d="M12 24v4.71c0 1.41.99 2.29 2.28 2.29h1.42c1.3 0 2.3-.88 2.3-2.29V24h-1v4.94c0 .6-.74 1.06-1.3 1.06h-1.42c-.55 0-1.28-.46-1.28-1.06V24h-1Zm7 7v-7h1.13L24 29.27V24h1v7h-1.2L20 25.68V31h-1Zm6.5 0 2.64-7h1.25L32 31h-1.11l-.75-2h-2.76l-.75 2H25.5Zm4.26-3-1-2.66-1 2.66h2Zm5.74 3a3.5 3.5 0 0 0 3.1-1.9l-.9-.42a2.5 2.5 0 1 1-.01-2.4l.95-.33A3.5 3.5 0 1 0 35.5 31Zm3.5-7h5v1h-4v2h3v1h-3v2h4v1h-5v-7Zm7 7h-1v-7h1.35l2.09 4.26 2.2-4.26H52v7h-1v-5.6l-2.56 4.81L46 25.4V31Z" fill="#5F5F5F"/><path d="M4 24v5l2.38-3.8c.35.47 1.04 1.44 1.05 1.54.02.1 1.34-1.66 2-2.55L11 26v-2H4Z" fill="#FCB815"/><path d="M4.02 31v-2H7v-1.5h2V26h2v5H4.02Z" fill="#8B0C03"/></svg>