<!-- by TradingView --><svg width="56" height="56" viewBox="0 0 56 56" xmlns="http://www.w3.org/2000/svg"><path fill="#F0F3FA" d="M0 0h56v56H0z"/><path fill-rule="evenodd" d="M5 27.08v1.08l.26-.03c.87-.12 2.06-.27 3.82-.19 0 .04.19 0 .83-.5.2-.18.38-.44.58-.73.56-.8 1.29-1.88 3.43-2.02.17-.02.5-.27.5-1.13.26-.1 1.13-.52 2.49-1.49.2.44.74 1.08 1.34.1.6-.98 1.64-2.33 2.09-2.88.4-.82 1.27-2.46 1.58-2.4.38.09.6.62.8 1.51.08.32.32.58.6.89.52.55 1.15 1.24 1.05 2.58-.06.1-.06.23.45-.1.38-.25.88-.66 1.2-.93.2-.16.32-.27.3-.22-.02.01-.05.06-.09.13-.33.56-1.55 2.65-2.95 3.79-.1.18-.2.52.2.43.47-.12 3.13-2.27 4.48-4.5l.06-.19c.17-.53.66-2.08 1.34-2.74.47-.45.49-.88.5-1.26.02-.29.03-.55.23-.76.2-.2.28-.37.34-.5.09-.16.13-.24.36-.24.21 0 .59.31.93.6.3.26.58.5.71.49.28-.02-.9-1.87-1.47-1.87-.27 0-.57.36-.88.75-.36.44-.74.92-1.15.92-.76 0-.97.17-.97.58 0 .33-1.48 1.91-2.21 2.66-1.04-.89-3.21-2.68-3.57-2.74-.33-.06-.46.1-.63.31a11.31 11.31 0 0 0-.52.58c-.4.45-.99 1.1-1.19 1.1h-.9c-.51.71-1.65 2.16-2.03 2.22-.49.08-1.53.42-3.5 3.3-.53-.11-1.91.02-3.24 1.45C8.51 26.92 7.8 27.51 5 27.08Zm3.2 2.82c.22.18.92.28 2-.73.7-.67 1.39-1.09 1.97-1.45.52-.33.97-.6 1.3-.97.32-.33.66-.82 1-1.29a4.8 4.8 0 0 1 1.06-1.27c.15-.06.05.07-.14.29-.3.35-.81.95-.83 1.45-.02.82-.4 2.76-1.08 3.17v-.02c.03-.09.08-.3-.63-.3-.35 0-.71.3-1.11.63-.5.41-1.08.88-1.78.9-1.27 0-1.64-.11-1.76-.41Zm17.28-5.56c-1.51 2.5-2.34 3.06-2.56 3.04 0 .78 2.15-.3 4.53-3.5 2.37-3.22-.08-2.66-1.97.46Zm6.13-8.44c.08.69.38 2.31.92 3.3.67 1.24 1.64 2.34 1.9 2.17.17-.11-.17-.78-.54-1.53-.2-.39-.4-.8-.55-1.16-.35-.85-1.3-2.2-1.73-2.78Zm5.11 5.4c-.64-1.23-2.66-3.43-3.6-4.38a56.33 56.33 0 0 0 2.93 5.52c.49.71.7 1.26.89 1.78.22.6.44 1.18 1.07 1.94a8.52 8.52 0 0 0 3.32 2.38c.2.02.17-.38.13-.99-.01-.3-.04-.64-.04-1 0-1.12.08-1.23.46-1.63l.28-.27c.55-.53 1.46-1.42 1.13-1.56-.16-.07-.58.14-1.14.42-.8.4-1.89.93-2.82.93-1.21 0-1.62-.94-2.11-2.08-.15-.34-.3-.7-.5-1.05Zm7.36 2.1c-.08.13.01.6.94 1.5.93.9 1.22.89 1.25.77.03-.07-.11-.45-.93-1.32-.82-.88-1.18-1-1.26-.95Zm1.94 4.92c-1.74-1.5-1.83-2.88-1.66-3.39 2.4 3.27 3.1 2.78 3.06 2.49a4.88 4.88 0 0 0-.98-1.25c.75.5 2.42 1.78 3.08 2.82A4.37 4.37 0 0 0 52 30.67c-3.33-.05-3.77-.43-5.67-2.08l-.31-.27ZM42.5 36h-2l.5-.5v-3l-.5-.5H42l3 2.68V32.5l-.5-.5h2l-.5.5v3l.5.5H45l-3-2.99v2.49l.5.5Zm-32.17-4H9l2.59 4h1.08L15 32h-1.25l-1.61 2.96-1.8-2.96ZM18 36c1.66 0 3-.9 3-2s-1.34-2-3-2-3 .9-3 2 1.34 2 3 2Zm0-.5c1.1 0 2-.67 2-1.5s-.9-1.5-2-1.5-2 .67-2 1.5.9 1.5 2 1.5Zm3.5-3.5h2l-.5.5v3h3.52L27 35v1.5l-.48-.5H21.5l.5-.5v-3l-.5-.5Zm9.45 4h-.03C29.3 36 28 35.1 28 34s1.3-1.99 2.92-1.99l.31.01c.61.02 1.66.1 2.52.34l-.44.5-.39.44c-.33-.47-1-.8-1.77-.8-1.1 0-2 .67-2 1.5s.9 1.5 2 1.5c.86 0 1.6-.4 1.88-.97l.24.26v-.01l.15.16.04.04.54.62c-1.05.3-2.6.4-3.05.4Zm3.33-.28L34 36h1.05l.55-1h2.54l.6 1H40l-.28-.28-2.14-3.49V32H36.2v.23l-1.93 3.49Zm3.56-1.22h-1.96l.94-1.72 1.02 1.72Z"/></svg>